<svg width="60" height="40" viewBox="0 0 60 40" fill="none" xmlns="http://www.w3.org/2000/svg">
<path d="M25.0705 27.2466V17.4837H24.9982L21.093 27.2466H19.5743L15.6691 17.4837H15.5968V27.2466H13.7889V14.0125H16.1031L20.2975 24.5709H20.3698L24.5642 14.0125H26.9507V27.2466H25.0705ZM37.1476 27.2466H35.2673V25.5833H35.195C34.6888 26.7404 33.6763 27.3913 32.2299 27.3913C30.1327 27.3913 28.9033 26.0172 28.9033 23.7754V17.556H30.8559V23.4138C30.8559 24.8601 31.5791 25.6556 32.8808 25.6556C34.3272 25.6556 35.1227 24.6432 35.1227 23.1245V17.556H37.0752L37.1476 27.2466ZM42.4991 17.4114C44.7409 17.4114 46.115 18.6408 46.1873 20.4487H44.3793C44.2347 19.5086 43.5838 18.9301 42.4991 18.9301C41.4143 18.9301 40.6911 19.4363 40.6911 20.2318C40.6911 20.8103 41.125 21.2442 42.1375 21.4612L43.6562 21.8228C45.6087 22.2567 46.3319 23.0522 46.3319 24.4262C46.3319 26.1619 44.7409 27.3913 42.4991 27.3913C40.1126 27.3913 38.6662 26.2342 38.5216 24.3539H40.4742C40.6188 25.3664 41.342 25.8726 42.4991 25.8726C43.6562 25.8726 44.3793 25.3664 44.3793 24.5709C44.3793 23.92 44.0178 23.5584 43.0053 23.3415L41.4866 22.9799C39.6787 22.546 38.8109 21.6781 38.8109 20.2318C38.8109 18.5685 40.2572 17.4114 42.4991 17.4114ZM47.7783 15.0249C47.7783 14.374 48.2845 13.8678 48.9354 13.8678C49.5862 13.8678 50.0925 14.374 50.0925 15.0249C50.0925 15.6758 49.5862 16.182 48.9354 16.182C48.2845 16.182 47.7783 15.6758 47.7783 15.0249ZM47.9229 17.556H49.8755V27.2466H47.9229V17.556ZM58.1197 20.8826C57.9028 19.8702 57.1796 19.0024 55.8779 19.0024C54.3592 19.0024 53.3468 20.3041 53.3468 22.329C53.3468 24.4262 54.3592 25.6556 55.8779 25.6556C57.1073 25.6556 57.8305 25.0048 58.1197 23.8477H60C59.783 25.8726 58.1921 27.3189 55.8779 27.3189C53.1298 27.3189 51.3942 25.4387 51.3942 22.329C51.3942 19.2917 53.1298 17.3391 55.8779 17.3391C58.3367 17.3391 59.783 18.9301 60 20.8103L58.1197 20.8826ZM7.7865 15.3142C7.28027 15.8927 6.48478 16.3989 5.68928 16.3266C5.54465 15.4588 5.97855 14.591 6.41246 14.0848C6.91869 13.4339 7.7865 13 8.50968 13C8.582 13.7955 8.29272 14.6633 7.7865 15.3142ZM8.50968 16.4713C8.94359 16.4713 10.2453 16.6159 11.1131 17.9176C11.0408 17.9899 9.59445 18.8577 9.59445 20.6657C9.59445 22.8352 11.4747 23.5584 11.4747 23.5584C11.4747 23.6307 11.1854 24.5709 10.5346 25.5833C9.95604 26.4511 9.30517 27.3189 8.36504 27.3189C7.42491 27.3189 7.13564 26.7404 6.05087 26.7404C4.9661 26.7404 4.60451 27.3189 3.7367 27.3189C2.79657 27.3189 2.07339 26.3788 1.49484 25.511C0.26544 23.703 -0.674692 20.4487 0.62703 18.2792C1.20557 17.1944 2.36266 16.4713 3.51974 16.4713C4.45988 16.4713 5.32769 17.1221 5.83392 17.1221C6.34014 17.1221 7.35259 16.3989 8.50968 16.4713Z" fill="black"/>
</svg>
