<svg width="60" height="40" viewBox="0 0 60 40" fill="none" xmlns="http://www.w3.org/2000/svg">
<path d="M58.8125 22.75V16H60V22.75H58.8125Z" fill="#F47521"/>
<path d="M56.25 22.75V16H57.4375V22.75H56.25Z" fill="#F47521"/>
<path d="M55.25 20.3125C55.25 21.9375 54.4375 22.8125 52.9375 22.8125C51.4375 22.8125 50.625 21.9375 50.625 20.3125C50.625 18.6875 51.4375 17.8125 52.9375 17.8125C54.4375 17.8125 55.25 18.6875 55.25 20.3125ZM54.125 20.3125C54.125 19 53.6875 18.75 53 18.75C52.3125 18.75 51.875 19 51.875 20.3125C51.875 21.625 52.3125 21.875 53 21.875C53.625 21.875 54.125 21.625 54.125 20.3125V20.3125Z" fill="#F47521"/>
<path d="M50.125 17.8125V18.8125C49.5 18.8125 48.75 18.8125 48.75 19.125V22.75H47.5625V18.4375C47.625 17.6875 50.125 17.8125 50.125 17.8125Z" fill="#F47521"/>
<path d="M43 24.6875C43.875 22.5 43.8125 22.6875 43.875 22.5L42.125 17.875H43.375L44.5 21.25L45.5625 17.875H46.8125L44.9375 22.875L44.25 24.6875H43Z" fill="#F47521"/>
<path d="M41.4375 19.8125V22.75H40.25V19.75C40.25 19.3125 40.125 18.875 39.0625 18.875C38.7874 18.8812 38.5143 18.9232 38.25 19V22.75H37.0625V16H38.25V17.9375C38.5659 17.8036 38.907 17.7397 39.25 17.75C40.6875 17.8125 41.4375 18.5625 41.4375 19.8125Z" fill="#F47521"/>
<path d="M34.875 21.8125C35.3023 21.7958 35.7242 21.7114 36.125 21.5625V22.5625C35.6689 22.7467 35.179 22.8319 34.6875 22.8125C33.1875 22.8125 32.375 21.9375 32.375 20.3125C32.375 18.6875 33.1875 17.75 34.6875 17.75C35.1759 17.767 35.6596 17.8511 36.125 18V19C35.7259 18.8449 35.303 18.7603 34.875 18.75C34.0625 18.75 33.5625 19 33.5625 20.25C33.5625 21.5625 34.0625 21.8125 34.875 21.8125Z" fill="#F47521"/>
<path d="M31.625 19.6875V22.75H30.5V19.6875C30.5 19.25 30.5 18.8125 29.5 18.8125C29.1875 18.8125 28.5625 18.875 28.5625 19.0625V22.75H27.4375V18.6875C27.4375 17.875 28.4375 17.75 29.6875 17.75C30.9375 17.8125 31.625 18.3125 31.625 19.6875Z" fill="#F47521"/>
<path d="M26.3125 17.875V20.5625C26.3125 22 25.8125 22.875 24.125 22.875C22.4375 22.875 22 22 22 20.5625V17.875H23.125V20.6875C23.125 21.5 23.4375 21.75 24.125 21.75C24.8125 21.75 25.125 21.5 25.125 20.6875V17.875H26.3125Z" fill="#F47521"/>
<path d="M21.0625 17.8125V18.8125C20.4375 18.8125 19.6875 18.8125 19.6875 19.125V22.75H18.5V18.4375C18.5625 17.6875 21.0625 17.8125 21.0625 17.8125Z" fill="#F47521"/>
<path d="M16.1875 21.8125C16.5953 21.8026 16.9978 21.7178 17.375 21.5625V22.5625C16.9189 22.7467 16.429 22.8319 15.9375 22.8125C14.4375 22.8125 13.625 21.9375 13.625 20.3125C13.625 18.6875 14.4375 17.75 15.9375 17.75C16.4259 17.767 16.9096 17.8511 17.375 18V19C16.9959 18.8511 16.5945 18.7666 16.1875 18.75C15.375 18.75 14.875 19 14.875 20.25C14.8125 21.5625 15.375 21.8125 16.1875 21.8125Z" fill="#F47521"/>
<path d="M1.375 20.3125C1.37752 19.0352 1.8742 17.8084 2.761 16.8891C3.64781 15.9698 4.85594 15.4293 6.13234 15.3808C7.40874 15.3323 8.65438 15.7797 9.60835 16.6291C10.5623 17.4785 11.1506 18.664 11.25 19.9375V19.625C11.25 18.5125 10.9201 17.4249 10.302 16.4999C9.68393 15.5749 8.80542 14.8539 7.77759 14.4282C6.74976 14.0024 5.61876 13.891 4.52761 14.1081C3.43647 14.3251 2.43419 14.8609 1.64753 15.6475C0.860856 16.4342 0.325127 17.4365 0.108085 18.5276C-0.108956 19.6188 0.00243723 20.7498 0.42818 21.7776C0.853922 22.8054 1.57489 23.6839 2.49992 24.302C3.42494 24.9201 4.51248 25.25 5.625 25.25H6C4.74873 25.1613 3.5771 24.6034 2.71955 23.6879C1.862 22.7724 1.38179 21.5669 1.375 20.3125V20.3125Z" fill="#F47521"/>
<path d="M8.99999 20.5625C8.57507 20.5644 8.1631 20.4163 7.83668 20.1442C7.51025 19.8722 7.29032 19.4936 7.21562 19.0753C7.14092 18.657 7.21625 18.2257 7.42834 17.8575C7.64043 17.4893 7.97567 17.2078 8.375 17.0625C7.8181 16.7643 7.19411 16.6136 6.5625 16.625C5.78373 16.625 5.02246 16.8559 4.37494 17.2886C3.72742 17.7212 3.22275 18.3362 2.92473 19.0557C2.62671 19.7752 2.54873 20.5668 2.70066 21.3306C2.85259 22.0944 3.2276 22.796 3.77827 23.3467C4.32894 23.8974 5.03053 24.2724 5.79433 24.4243C6.55813 24.5762 7.34983 24.4983 8.06931 24.2003C8.7888 23.9022 9.40375 23.3976 9.83641 22.75C10.2691 22.1025 10.5 21.3412 10.5 20.5625C10.5103 20.3109 10.4893 20.0589 10.4375 19.8125C10.2864 20.0542 10.0735 20.2511 9.82074 20.383C9.56802 20.5148 9.28468 20.5768 8.99999 20.5625V20.5625Z" fill="#F47521"/>
</svg>
