<svg width="60" height="40" viewBox="0 0 60 40" fill="none" xmlns="http://www.w3.org/2000/svg">
<path d="M27.2394 25.3645C27.2725 25.3691 27.2797 25.3704 27.3121 25.3747C27.8524 25.449 28.3834 25.5476 28.7899 25.7315C29.1666 25.8998 29.3874 26.1129 29.589 26.4927C29.8955 27.0686 29.9155 27.8754 29.6385 28.486C29.4315 28.9404 28.9773 29.3214 28.5625 29.5233C28.1319 29.7347 27.7075 29.8353 27.2209 29.8916C26.3697 29.9864 25.4505 29.8079 24.6846 29.433C24.2314 29.209 23.6781 28.8232 23.399 28.3263C23.1937 27.9622 23.2003 27.4886 23.45 27.1426C23.848 26.5911 24.7006 26.4697 25.3427 26.4927C25.8322 26.5119 26.7137 26.6651 27.1785 26.8324C27.3073 26.8796 27.7825 27.0669 27.8654 27.1529C27.9238 27.2126 27.9616 27.2995 27.9354 27.3798C27.8292 27.7086 27.0399 27.882 26.8119 27.9168C26.2017 28.0114 25.8851 27.7776 25.1914 27.5003C25.0192 27.4321 24.7897 27.3563 24.6144 27.3399C24.2994 27.3096 23.919 27.3989 23.8589 27.7469C23.829 27.9262 24.0368 28.094 24.1953 28.1645C24.5674 28.3263 24.8699 28.3845 25.2361 28.3895C26.3181 28.4075 27.534 28.2272 28.4189 27.5925C28.54 27.505 28.659 27.3769 28.6603 27.2154C28.6641 26.8893 28.0993 26.6899 28.0993 26.6899C27.5032 26.4383 26.4018 26.3159 25.8344 26.2686C25.239 26.2164 24.3021 26.1384 24.0771 26.1048C23.8455 26.0714 23.5939 26.024 23.3934 25.9331C23.1919 25.8409 22.9948 25.6347 22.9363 25.4066C22.8325 24.9954 22.9649 24.4908 23.1905 24.1623C23.7818 23.3018 25.1669 22.9749 26.2017 22.8451C27.2032 22.719 28.8223 22.7203 29.806 23.2494C29.9578 23.3318 30.0354 23.4085 30.0037 23.5728C29.9396 23.8814 29.7105 24.0802 29.4328 24.1674C29.1415 24.2612 28.539 24.2978 28.2743 24.3146C27.0883 24.3819 25.6552 24.3467 24.5256 24.6585C24.4371 24.684 24.2842 24.7258 24.2345 24.7819C24.0577 24.9762 24.5627 25.0317 24.6709 25.054C24.703 25.0618 24.7093 25.0628 24.7428 25.0666L27.2394 25.3645ZM20.184 20.0114C20.184 20.0114 20.3769 19.7185 20.5386 19.4964C20.8329 19.0917 21.3655 18.5306 21.7666 18.1832C21.8893 18.0771 22.0339 17.9569 22.0339 17.9569C22.0339 17.9569 21.8077 17.9806 21.6795 18.0071C21.3751 18.0671 20.9289 18.3673 20.706 18.5613C20.338 18.8801 19.9335 19.3983 20.1165 19.8588C20.1431 19.9239 20.184 20.0114 20.184 20.0114ZM22.2293 20.5654C22.8105 20.5249 23.355 20.3555 23.8618 20.0709C24.3589 19.7893 25.0901 19.2402 25.0143 18.5948C24.9912 18.3859 24.8561 18.2281 24.6855 18.1545C24.4638 18.0573 24.3482 18.073 24.065 18.1582C23.8593 18.2191 23.7666 18.2561 23.5723 18.3686C23.0021 18.7039 22.1937 19.4216 21.7548 19.9943C21.6535 20.1294 21.5509 20.2805 21.4706 20.384C21.42 20.4478 21.3806 20.5065 21.3855 20.5221C21.403 20.587 22.0023 20.581 22.2293 20.5654ZM20.7495 21.6657C20.6895 21.7299 20.6261 21.8847 20.5603 21.9967C20.5252 22.0567 20.4601 22.1339 20.417 22.1648C20.2657 22.2774 20.1376 22.2827 19.9915 22.1526C19.7868 21.9692 19.6683 21.6856 19.6599 21.4098C19.6555 21.2894 19.6759 21.1562 19.6534 21.0547C19.6162 20.8834 19.4468 20.7069 19.3555 20.5431C19.2483 20.3501 19.1615 20.0136 19.1507 19.7964C19.1139 19.119 19.4667 18.495 19.9249 18.0029C20.3863 17.5052 20.9901 17.0916 21.6466 16.81C22.2673 16.5454 23.1768 16.365 23.8583 16.6039C24.0802 16.6809 24.3893 16.872 24.5446 17.0723C24.5776 17.1138 24.6045 17.1588 24.6384 17.1808C24.6687 17.2003 24.7479 17.208 24.811 17.2197C25.0284 17.2579 25.3413 17.4245 25.4692 17.5354C25.726 17.7597 25.8667 17.9741 25.9318 18.2853C26.0624 18.9114 25.7062 19.5982 25.3006 20.0163C24.606 20.7357 23.92 21.2416 23.0314 21.5937C22.6411 21.7481 22.0332 21.8923 21.5904 21.8519C21.4529 21.8404 21.3117 21.8037 21.1777 21.7947C21.1094 21.7888 20.8596 21.7235 20.8329 21.7051C20.7997 21.6794 20.757 21.657 20.7495 21.6657ZM21.5431 23.0538C21.5701 23.0584 21.6118 23.0707 21.6477 23.0846C21.9592 23.2046 22.0874 23.4964 22.1641 23.817C22.342 24.5614 22.4179 26.2081 22.4475 26.8527C22.4692 27.3365 22.4811 27.8125 22.5012 28.2908C22.5181 28.6958 22.5501 29.2342 22.4667 29.6136C22.4364 29.7501 22.3462 29.9088 22.2171 29.99C22.0692 30.0859 21.7325 30.0932 21.5475 30.0545C21.0913 29.9591 20.9431 29.6622 20.878 29.2056C20.7233 28.116 20.7978 25.9777 20.8891 25.0754C20.9195 24.7774 21.0304 23.8225 21.1841 23.4221C21.2366 23.2871 21.3484 23.0152 21.5431 23.0538ZM7.66724 24.8665C7.66724 24.8665 6.9884 24.9152 6.52118 24.9677C5.92676 25.0325 4.80986 25.2277 4.16516 25.4607C3.97178 25.5308 3.57896 25.6972 3.54482 25.8985C3.50894 26.1071 3.63686 26.2703 3.77912 26.4391C3.86138 26.5371 4.32698 26.9905 4.45754 27.1006C5.0048 27.5632 6.1145 28.2764 6.93182 28.6228C7.21262 28.7404 7.67714 28.9087 7.67714 28.9087C7.67714 28.9087 7.64264 27.5699 7.64882 26.2511C7.65242 25.5554 7.66724 24.8665 7.66724 24.8665ZM20.1145 25.3994C20.1534 25.7591 20.062 26.4391 20.0462 26.5288C20.0173 26.7356 19.8633 27.2125 19.8377 27.2706C19.7134 27.5605 19.5908 27.798 19.4609 28.0348C19.2383 28.4404 18.709 29.0832 18.3948 29.3584C17.2263 30.3807 15.4174 30.9628 13.8655 31.1546C12.8125 31.2833 11.6026 31.2644 10.4868 31.0555C10.1028 30.9848 9.53138 30.8514 9.53138 30.8514C9.53138 30.8514 9.53324 31.0827 9.51494 31.2454C9.50606 31.3196 9.45086 31.5149 9.4199 31.5782C9.33878 31.7478 9.20558 31.8354 9.0119 31.873C8.77814 31.9169 8.53022 31.9316 8.31422 31.8381C7.95956 31.687 7.83224 31.3512 7.77044 30.9638C7.72046 30.654 7.66814 30.1154 7.66814 30.1154C7.66814 30.1154 7.40282 29.9883 7.1816 29.8765C6.5021 29.5376 5.85674 29.127 5.29214 28.7047C5.13572 28.5865 4.46372 28.0168 4.3154 27.8753C3.89948 27.4756 3.52532 27.078 3.24068 26.5678C3.0194 26.1691 2.95568 25.8154 3.12398 25.393C3.35606 24.8043 4.18988 24.361 4.76054 24.1084C5.1794 23.9213 6.48182 23.4908 7.02284 23.411C7.27838 23.374 7.67474 23.3021 7.6991 23.2861C7.70906 23.2784 7.71596 23.2718 7.72316 23.2635C7.73564 23.2457 7.7567 22.6629 7.75262 22.4498C7.74734 22.2402 7.90586 20.8635 7.9568 20.5724C7.98338 20.415 8.10116 19.809 8.2214 19.6499C8.30006 19.5424 8.43914 19.5511 8.55254 19.6217C9.17306 20.0122 9.36158 21.3668 9.40772 22.0561C9.43532 22.476 9.44906 23.1076 9.44906 23.1076C9.44906 23.1076 10.1609 23.0863 10.5988 23.0989C11.0243 23.1089 11.4933 23.1769 11.935 23.2481C12.5004 23.3399 13.6026 23.5833 14.2347 23.9077C14.7552 24.1748 15.2424 24.6248 15.4002 25.1011C15.5469 25.5377 15.5249 25.8399 15.3015 26.234C15.0504 26.6789 14.5753 27.0096 14.0936 27.0372C13.9503 27.0456 13.4107 26.973 13.2447 26.8429C13.1796 26.7911 13.183 26.6975 13.23 26.634C13.2478 26.6117 13.5 26.476 13.6488 26.3968C13.7235 26.3557 13.7852 26.3115 13.8435 26.2577C13.9671 26.1475 14.0784 26.0261 14.066 25.8839C14.0489 25.6992 13.8559 25.5854 13.6719 25.5121C12.8088 25.165 11.0854 24.8769 10.2526 24.827C9.9266 24.8076 9.46292 24.7911 9.46292 24.7911L9.56096 29.4462C9.56096 29.4462 9.9443 29.5201 10.2464 29.5697C10.4197 29.5963 11.1542 29.6632 11.3494 29.6681C12.8355 29.7078 14.4941 29.5731 15.8579 28.9216C16.4566 28.6364 17.0059 28.2813 17.4218 27.8006C17.9699 27.1645 18.2569 26.294 18.181 25.3847C18.0977 24.3917 17.4073 23.2128 16.8559 22.4951C15.3992 20.5987 12.9022 19.0388 10.7053 18.1242C8.46254 17.1911 6.2459 16.6544 3.86564 16.5645C3.25202 16.5414 1.91408 16.5728 1.23776 16.7622C1.14116 16.7897 1.04378 16.8227 0.954083 16.8431C0.883223 16.8606 0.771563 16.9081 0.740903 16.9332C0.723923 16.9471 0.707123 16.9664 0.707123 16.9664C0.707123 16.9664 0.748823 16.9897 0.788663 17.0067C0.860303 17.0384 1.16186 17.0573 1.31792 17.0862C1.45754 17.1129 1.60292 17.1871 1.66046 17.2906C1.71512 17.3891 1.72196 17.4667 1.65662 17.5488C1.50338 17.7375 0.926603 17.7056 0.672623 17.6649C0.408683 17.6224 0.0800628 17.5406 0.0197028 17.308C-0.0503172 17.034 0.0782628 16.7654 0.217163 16.5172C0.496223 16.0204 0.895943 15.762 1.4813 15.6002C2.31272 15.3686 3.36254 15.2067 4.14764 15.1764C5.9246 15.1084 7.6064 15.4229 9.3281 15.9521C10.3135 16.2537 11.6035 16.7598 12.548 17.2201C13.2257 17.5509 14.2935 18.1591 14.8933 18.5567C15.0825 18.683 16.1895 19.5064 16.3615 19.6512C16.7202 19.9481 17.1894 20.3748 17.5292 20.7161C18.1866 21.3755 19.0042 22.3862 19.4014 23.1885C19.497 23.3806 19.571 23.5696 19.6943 23.7923C19.7367 23.8685 19.9182 24.3248 19.9483 24.4566C19.9782 24.587 20.022 24.7787 20.0282 24.7863C20.037 24.8563 20.1211 25.2483 20.1145 25.3994ZM42.4539 24.3701C41.6217 24.5643 39.4335 24.6722 39.4335 24.6722L39.1575 25.5472C39.1575 25.5472 40.2511 25.4526 41.0466 25.5368C41.0466 25.5368 41.3044 25.5065 41.3347 25.833C41.3449 26.1375 41.3091 26.4643 41.3091 26.4643C41.3091 26.4643 41.2926 26.662 41.0158 26.7122C40.7159 26.7628 38.6588 26.8434 38.6588 26.8434L38.3257 27.9839C38.3257 27.9839 38.2019 28.2475 38.4793 28.1723C38.7371 28.1024 40.8925 27.693 41.1733 27.7519C41.4741 27.8275 41.8071 28.2336 41.7108 28.6036C41.5961 29.0622 39.4448 30.451 38.1347 30.3541C38.1347 30.3541 37.4463 30.399 36.8644 29.4585C36.3225 28.5623 37.0698 26.8654 37.0698 26.8654C37.0698 26.8654 36.7272 26.0732 36.9754 25.8047C36.9754 25.8047 37.1232 25.669 37.5538 25.6383L38.0811 24.5341C38.0811 24.5341 37.4805 24.5759 37.1232 24.1287C36.7903 23.7044 36.7624 23.5093 37.0176 23.3922C37.2905 23.2558 39.7917 22.7937 41.5128 22.8523C41.5128 22.8523 42.1109 22.7928 42.6297 23.8431C42.6298 23.8432 42.8811 24.2679 42.4539 24.3701ZM35.9804 28.6159C35.7598 29.1411 35.1772 29.7015 34.4533 29.3532C33.7388 29.004 32.6007 26.646 32.6007 26.646C32.6007 26.646 32.1686 25.7668 32.0855 25.7894C32.0855 25.7894 31.9921 25.6177 31.9349 26.5786C31.8754 27.5353 31.9464 29.401 31.5693 29.6946C31.2121 29.9891 30.7797 29.8718 30.5554 29.5278C30.3515 29.1889 30.2667 28.3836 30.3779 26.9693C30.5086 25.5522 30.8338 24.0445 31.2493 23.575C31.6642 23.1087 31.9974 23.4472 32.1272 23.57C32.1272 23.57 32.6822 24.0792 33.5974 25.5745L33.759 25.8511C33.759 25.8511 34.5907 27.2637 34.6776 27.2604C34.6776 27.2604 34.7455 27.3254 34.8061 27.2787C34.8934 27.2535 34.8582 26.8005 34.8582 26.8005C34.8582 26.8005 34.6857 25.261 33.9269 22.6552C33.9269 22.6552 33.8122 22.3302 33.8898 22.0258C33.9668 21.7181 34.2715 21.8625 34.2715 21.8625C34.2715 21.8625 35.4475 22.4611 36.0183 24.3992C36.5854 26.3379 36.2043 28.0868 35.9804 28.6159ZM48.6371 27.4551C48.1018 28.4006 46.5905 30.3803 44.5821 29.9129C43.9188 31.541 43.3617 33.1879 43.0431 35.6524C43.0431 35.6524 42.973 36.1313 42.5799 35.9649C42.1902 35.8268 41.5484 35.1711 41.4186 34.2639C41.2789 33.0722 41.803 31.0576 42.8742 28.7477C42.5617 28.2336 42.3487 27.499 42.5311 26.4531C42.5311 26.4531 42.8001 24.5108 44.7271 22.7602C44.7271 22.7602 44.9581 22.5583 45.0921 22.6205C45.2396 22.6831 45.1713 23.3151 45.0542 23.6224C44.9326 23.928 44.0747 25.4314 44.0747 25.4314C44.0747 25.4314 43.5396 26.4471 43.6902 27.2482C44.7008 25.6753 46.9982 22.5036 48.4222 23.5038C48.9005 23.8502 49.121 24.6037 49.121 25.4157C49.1213 26.1289 48.9514 26.887 48.6371 27.4551ZM48.2215 24.9641C48.2215 24.9641 48.1423 24.3388 47.5383 25.0277C47.0188 25.609 46.0819 26.6983 45.3276 28.1777C46.119 28.0878 46.8823 27.6532 47.1132 27.4318C47.4884 27.0948 48.3625 26.1804 48.2215 24.9641ZM59.7012 24.8217H56.0203C55.9469 23.5553 55.7959 22.3217 55.5585 21.0513C55.5341 20.9198 55.4211 20.8244 55.2895 20.8244H54.4409C54.367 20.8244 54.2971 20.858 54.2493 20.9166C54.2013 20.9762 54.1825 21.052 54.1966 21.1262C54.4377 22.3556 54.5904 23.5656 54.6658 24.8229H51.1245C50.9595 24.8229 50.8255 24.9582 50.8255 25.1246V25.8993C50.8255 26.066 50.9595 26.2022 51.1245 26.2022H54.7165C54.7188 26.3934 54.7206 26.5647 54.7206 26.7253C54.7206 27.8419 54.673 28.7616 54.5619 29.7996C54.5531 29.8799 54.579 29.9597 54.6327 30.0186C54.6848 30.0779 54.7599 30.1117 54.8377 30.1117H55.6248C55.7784 30.1117 55.9056 29.9948 55.921 29.8399C56.0286 28.7949 56.0746 27.8637 56.0746 26.7252C56.0746 26.5652 56.073 26.3934 56.0706 26.2022H59.7012C59.8658 26.2022 60.0001 26.066 60.0001 25.8992V25.1245C60.0001 24.9574 59.8657 24.8217 59.7012 24.8217Z" fill="white"/>
<path d="M10.4829 14.44C10.4307 14.5185 10.4181 14.6147 10.4481 14.7052C10.4793 14.7954 10.5473 14.864 10.6351 14.8952L11.295 15.12C11.3349 15.1326 11.3745 15.1392 11.4134 15.1392C11.5357 15.1392 11.6505 15.078 11.7184 14.9751C13.8798 11.761 16.8049 9.08492 20.1781 7.23613C23.6605 5.32721 27.606 4.31748 31.5894 4.31748C36.4006 4.31748 41.0428 5.75412 45.0144 8.4718C48.8896 11.1227 51.8992 14.8211 53.718 19.1674C53.7723 19.2975 53.8978 19.3814 54.0369 19.3814H54.8249C54.9156 19.3814 55.0011 19.3351 55.0524 19.2583C55.104 19.1816 55.1137 19.0843 55.0794 18.9981C53.2041 14.3249 50.0328 10.3412 45.9073 7.47913C41.684 4.54906 36.7329 3 31.5894 3C23.0861 3 15.1956 7.27676 10.4829 14.44Z" fill="white"/>
</svg>
