<svg width="60" height="40" viewBox="0 0 60 40" fill="none" xmlns="http://www.w3.org/2000/svg">
<path d="M27.2393 26.0935C27.2725 26.0981 27.2797 26.0994 27.312 26.1036C27.8524 26.177 28.3834 26.2744 28.7898 26.4561C29.1665 26.6224 29.3873 26.8329 29.5889 27.2081C29.8954 27.777 29.9154 28.574 29.6384 29.1773C29.4315 29.6261 28.9772 30.0025 28.5625 30.202C28.1318 30.4108 27.7075 30.5102 27.2208 30.5658C26.3697 30.6595 25.4504 30.4832 24.6845 30.1127C24.2314 29.8914 23.6781 29.5104 23.3989 29.0195C23.1937 28.6598 23.2002 28.1919 23.4499 27.8501C23.848 27.3053 24.7005 27.1853 25.3426 27.2081C25.8322 27.227 26.7136 27.3784 27.1785 27.5437C27.3073 27.5903 27.7824 27.7754 27.8653 27.8603C27.9237 27.9193 27.9616 28.0051 27.9354 28.0844C27.8292 28.4093 27.0398 28.5805 26.8119 28.6149C26.2017 28.7084 25.885 28.4774 25.1913 28.2035C25.0191 28.1361 24.7896 28.0613 24.6143 28.0451C24.2994 28.0151 23.919 28.1033 23.8588 28.4471C23.829 28.6243 24.0367 28.79 24.1952 28.8596C24.5673 29.0195 24.8698 29.077 25.2361 29.0819C26.318 29.0997 27.5339 28.9216 28.4188 28.2946C28.54 28.2081 28.659 28.0816 28.6602 27.922C28.6641 27.5999 28.0993 27.4029 28.0993 27.4029C27.5032 27.1544 26.4018 27.0334 25.8343 26.9867C25.2389 26.9351 24.302 26.858 24.0771 26.8249C23.8455 26.7919 23.5939 26.7451 23.3933 26.6552C23.1918 26.5642 22.9947 26.3605 22.9362 26.1352C22.8325 25.7289 22.9648 25.2304 23.1904 24.9059C23.7817 24.0558 25.1668 23.7329 26.2016 23.6047C27.2031 23.4801 28.8222 23.4814 29.8059 24.0041C29.9578 24.0855 30.0354 24.1612 30.0036 24.3236C29.9395 24.6284 29.7105 24.8248 29.4328 24.9109C29.1415 25.0036 28.5389 25.0397 28.2742 25.0564C27.0883 25.1229 25.6551 25.088 24.5255 25.3961C24.437 25.4213 24.2841 25.4626 24.2344 25.5181C24.0576 25.71 24.5626 25.7648 24.6708 25.7868C24.703 25.7945 24.7092 25.7956 24.7428 25.7992L27.2393 26.0935ZM20.184 20.8053C20.184 20.8053 20.3769 20.516 20.5385 20.2965C20.8328 19.8968 21.3654 19.3425 21.7665 18.9993C21.8892 18.8944 22.0339 18.7757 22.0339 18.7757C22.0339 18.7757 21.8076 18.7991 21.6794 18.8253C21.3751 18.8845 20.9289 19.1811 20.7059 19.3728C20.338 19.6877 19.9334 20.1997 20.1165 20.6546C20.1431 20.7189 20.184 20.8053 20.184 20.8053ZM22.2292 21.3526C22.8105 21.3125 23.3549 21.1452 23.8618 20.8641C24.3589 20.5859 25.09 20.0435 25.0142 19.4059C24.9912 19.1995 24.856 19.0437 24.6855 18.9709C24.4638 18.8749 24.3481 18.8904 24.0649 18.9745C23.8592 19.0347 23.7665 19.0713 23.5722 19.1824C23.002 19.5137 22.1936 20.2227 21.7547 20.7885C21.6534 20.9219 21.5508 21.0711 21.4706 21.1734C21.4199 21.2365 21.3806 21.2944 21.3855 21.3098C21.403 21.3739 22.0023 21.368 22.2292 21.3526ZM20.7494 22.4396C20.6895 22.503 20.6261 22.6559 20.5603 22.7666C20.5251 22.8258 20.46 22.9021 20.417 22.9327C20.2657 23.0439 20.1375 23.0491 19.9915 22.9205C19.7867 22.7394 19.6683 22.4593 19.6599 22.1867C19.6555 22.0678 19.6759 21.9362 19.6534 21.836C19.6161 21.6667 19.4468 21.4924 19.3554 21.3306C19.2482 21.1399 19.1615 20.8075 19.1507 20.5929C19.1139 19.9237 19.4666 19.3073 19.9248 18.8211C20.3863 18.3295 20.99 17.9209 21.6466 17.6427C22.2672 17.3813 23.1767 17.2031 23.8582 17.4391C24.0801 17.5152 24.3892 17.704 24.5446 17.9018C24.5776 17.9428 24.6045 17.9872 24.6383 18.009C24.6686 18.0283 24.7479 18.0359 24.8109 18.0475C25.0283 18.0852 25.3413 18.2497 25.4691 18.3594C25.726 18.5809 25.8667 18.7927 25.9318 19.1001C26.0623 19.7186 25.7062 20.3971 25.3005 20.8101C24.6059 21.5209 23.9199 22.0206 23.0313 22.3685C22.641 22.5209 22.0332 22.6634 21.5904 22.6235C21.4529 22.6121 21.3116 22.5759 21.1777 22.567C21.1094 22.5611 20.8595 22.4967 20.8328 22.4785C20.7997 22.4531 20.7569 22.4309 20.7494 22.4396ZM21.543 23.8108C21.5701 23.8154 21.6118 23.8275 21.6477 23.8413C21.9592 23.9598 22.0873 24.2481 22.1641 24.5648C22.3419 25.3001 22.4178 26.927 22.4474 27.5638C22.4691 28.0417 22.4811 28.5119 22.5011 28.9844C22.5181 29.3845 22.55 29.9163 22.4666 30.2912C22.4363 30.426 22.3461 30.5828 22.217 30.663C22.0691 30.7577 21.7324 30.7649 21.5474 30.7268C21.0913 30.6324 20.9431 30.3392 20.878 29.8881C20.7233 28.8118 20.7978 26.6993 20.8891 25.808C20.9195 25.5136 21.0303 24.5702 21.1841 24.1747C21.2366 24.0413 21.3483 23.7727 21.543 23.8108ZM7.66722 25.6016C7.66722 25.6016 6.98839 25.6497 6.52117 25.7015C5.92675 25.7656 4.80985 25.9584 4.16515 26.1886C3.97177 26.2579 3.57895 26.4223 3.54481 26.6211C3.50893 26.8272 3.63685 26.9884 3.77911 27.1551C3.86137 27.2519 4.32697 27.6998 4.45753 27.8087C5.00479 28.2656 6.11449 28.9702 6.93181 29.3124C7.21261 29.4286 7.67712 29.5949 7.67712 29.5949C7.67712 29.5949 7.64262 28.2722 7.6488 26.9694C7.6524 26.2821 7.66722 25.6016 7.66722 25.6016ZM20.1144 26.128C20.1533 26.4833 20.062 27.1552 20.0462 27.2438C20.0172 27.448 19.8632 27.9191 19.8377 27.9766C19.7133 28.2629 19.5908 28.4975 19.4609 28.7315C19.2383 29.1322 18.7089 29.7672 18.3947 30.039C17.2262 31.049 15.4173 31.6241 13.8655 31.8135C12.8125 31.9407 11.6026 31.922 10.4868 31.7156C10.1028 31.6457 9.53136 31.514 9.53136 31.514C9.53136 31.514 9.53322 31.7425 9.51492 31.9032C9.50604 31.9765 9.45084 32.1695 9.41988 32.232C9.33876 32.3996 9.20556 32.486 9.01188 32.5232C8.77812 32.5666 8.5302 32.5811 8.3142 32.4887C7.95954 32.3395 7.83222 32.0077 7.77042 31.625C7.72044 31.319 7.66812 30.7869 7.66812 30.7869C7.66812 30.7869 7.40281 30.6613 7.18159 30.5509C6.50209 30.2161 5.85673 29.8104 5.29213 29.3933C5.13571 29.2765 4.46371 28.7137 4.31539 28.574C3.89947 28.1791 3.52531 27.7863 3.24068 27.2822C3.0194 26.8885 2.95568 26.539 3.12398 26.1217C3.35605 25.5401 4.18987 25.1023 4.76053 24.8527C5.17939 24.6678 6.48181 24.2425 7.02283 24.1637C7.27837 24.1271 7.67472 24.0562 7.69908 24.0403C7.70904 24.0327 7.71594 24.0262 7.72314 24.018C7.73562 24.0004 7.75668 23.4247 7.7526 23.2141C7.74732 23.0071 7.90584 21.6471 7.95678 21.3595C7.98336 21.204 8.10114 20.6053 8.22138 20.4482C8.30004 20.342 8.43912 20.3506 8.55252 20.4203C9.17304 20.8062 9.36156 22.1443 9.4077 22.8252C9.4353 23.24 9.44904 23.864 9.44904 23.864C9.44904 23.864 10.1609 23.843 10.5988 23.8554C11.0243 23.8653 11.4933 23.9324 11.935 24.0028C12.5004 24.0935 13.6025 24.3339 14.2346 24.6544C14.7551 24.9182 15.2423 25.3628 15.4002 25.8334C15.5468 26.2647 15.5249 26.5632 15.3015 26.9525C15.0503 27.392 14.5752 27.7187 14.0936 27.746C13.9502 27.7543 13.4107 27.6826 13.2447 27.5541C13.1796 27.5029 13.183 27.4104 13.2299 27.3477C13.2478 27.3257 13.4999 27.1916 13.6488 27.1133C13.7234 27.0728 13.7852 27.029 13.8434 26.9759C13.9671 26.867 14.0784 26.7472 14.066 26.6066C14.0489 26.4242 13.8558 26.3117 13.6719 26.2394C12.8087 25.8965 11.0854 25.6118 10.2526 25.5626C9.92658 25.5434 9.4629 25.5271 9.4629 25.5271L9.56094 30.1258C9.56094 30.1258 9.94428 30.1988 10.2464 30.2478C10.4197 30.2741 11.1542 30.3402 11.3494 30.345C12.8354 30.3842 14.4941 30.2511 15.8579 29.6076C16.4566 29.3258 17.0059 28.975 17.4218 28.5001C17.9699 27.8717 18.2569 27.0118 18.1809 26.1135C18.0977 25.1325 17.4072 23.968 16.8559 23.2589C15.3992 21.3855 12.9022 19.8445 10.7053 18.941C8.46252 18.0192 6.24589 17.4889 3.86563 17.4001C3.25202 17.3774 1.91408 17.4084 1.23776 17.5954C1.14116 17.6227 1.04378 17.6552 0.954081 17.6754C0.883221 17.6927 0.771561 17.7396 0.740901 17.7644C0.723921 17.7781 0.707121 17.7972 0.707121 17.7972C0.707121 17.7972 0.748821 17.8202 0.788661 17.8371C0.860301 17.8683 1.16186 17.887 1.31792 17.9156C1.45754 17.9419 1.60292 18.0152 1.66046 18.1175C1.71512 18.2148 1.72196 18.2914 1.65662 18.3726C1.50338 18.5589 0.926601 18.5275 0.672621 18.4873C0.408682 18.4452 0.0800626 18.3645 0.0197028 18.1347C-0.0503171 17.864 0.0782626 17.5987 0.217162 17.3534C0.496222 16.8627 0.895941 16.6074 1.4813 16.4476C2.31272 16.2188 3.36253 16.0588 4.14763 16.0288C5.92459 15.9617 7.60638 16.2724 9.32808 16.7952C10.3135 17.0931 11.6035 17.5931 12.548 18.0478C13.2257 18.3746 14.2934 18.9755 14.8932 19.3682C15.0824 19.4931 16.1895 20.3065 16.3614 20.4495C16.7202 20.7427 17.1894 21.1643 17.5292 21.5014C18.1865 22.1528 19.0041 23.1514 19.4013 23.9439C19.4969 24.1337 19.571 24.3204 19.6943 24.5404C19.7367 24.6157 19.9181 25.0664 19.9483 25.1966C19.9782 25.3255 20.022 25.5148 20.0282 25.5223C20.0369 25.5915 20.121 25.9787 20.1144 26.128ZM42.4538 25.1112C41.6216 25.3031 39.4334 25.4096 39.4334 25.4096L39.1574 26.274C39.1574 26.274 40.251 26.1806 41.0465 26.2637C41.0465 26.2637 41.3043 26.2338 41.3346 26.5564C41.3448 26.8572 41.309 27.18 41.309 27.18C41.309 27.18 41.2925 27.3753 41.0157 27.425C40.7158 27.475 38.6587 27.5545 38.6587 27.5545L38.3256 28.6812C38.3256 28.6812 38.2018 28.9417 38.4793 28.8673C38.737 28.7983 40.8924 28.3939 41.1732 28.4521C41.474 28.5268 41.807 28.9279 41.7107 29.2934C41.596 29.7464 39.4447 31.1184 38.1346 31.0227C38.1346 31.0227 37.4462 31.0671 36.8643 30.138C36.3224 29.2526 37.0697 27.5762 37.0697 27.5762C37.0697 27.5762 36.7271 26.7937 36.9754 26.5284C36.9754 26.5284 37.1231 26.3944 37.5537 26.3641L38.081 25.2732C38.081 25.2732 37.4804 25.3145 37.1231 24.8727C36.7903 24.4535 36.7624 24.2609 37.0175 24.1451C37.2904 24.0104 39.7916 23.5539 41.5127 23.6118C41.5127 23.6118 42.1108 23.5531 42.6296 24.5906C42.6297 24.5906 42.881 25.0102 42.4538 25.1112ZM35.9803 29.3056C35.7598 29.8244 35.1771 30.378 34.4533 30.0339C33.7387 29.689 32.6006 27.3596 32.6006 27.3596C32.6006 27.3596 32.1685 26.491 32.0854 26.5133C32.0854 26.5133 31.9921 26.3437 31.9348 27.2929C31.8753 28.2381 31.9463 30.0811 31.5692 30.3712C31.2121 30.6621 30.7796 30.5463 30.5553 30.2064C30.3514 29.8717 30.2666 29.0761 30.3778 27.6789C30.5086 26.279 30.8338 24.7895 31.2493 24.3257C31.6642 23.8651 31.9973 24.1995 32.1271 24.3208C32.1271 24.3208 32.6821 24.8239 33.5974 26.301L33.7589 26.5742C33.7589 26.5742 34.5906 27.9698 34.6775 27.9665C34.6775 27.9665 34.7455 28.0307 34.8061 27.9846C34.8934 27.9596 34.8581 27.5122 34.8581 27.5122C34.8581 27.5122 34.6856 25.9913 33.9268 23.417C33.9268 23.417 33.8121 23.096 33.8897 22.7953C33.9667 22.4913 34.2714 22.634 34.2714 22.634C34.2714 22.634 35.4474 23.2253 36.0182 25.1399C36.5853 27.0552 36.2042 28.7828 35.9803 29.3056ZM48.637 28.1588C48.1017 29.0929 46.5904 31.0486 44.582 30.5868C43.9187 32.1952 43.3616 33.8222 43.043 36.2568C43.043 36.2568 42.9729 36.7299 42.5798 36.5655C42.1901 36.4292 41.5483 35.7813 41.4185 34.8851C41.2788 33.7079 41.8029 31.7177 42.8741 29.4358C42.5616 28.9279 42.3486 28.2022 42.531 27.169C42.531 27.169 42.8 25.2502 44.727 23.5208C44.727 23.5208 44.958 23.3213 45.092 23.3828C45.2395 23.4446 45.1712 24.069 45.0541 24.3726C44.9325 24.6745 44.0746 26.1596 44.0746 26.1596C44.0746 26.1596 43.5395 27.163 43.6901 27.9544C44.7007 26.4006 46.9981 23.2673 48.4221 24.2554C48.9004 24.5976 49.1209 25.342 49.1209 26.1442C49.1212 26.8487 48.9513 27.5976 48.637 28.1588ZM48.2214 25.698C48.2214 25.698 48.1422 25.0802 47.5382 25.7608C47.0187 26.3351 46.0818 27.4112 45.3275 28.8727C46.1189 28.7839 46.8822 28.3545 47.1131 28.1358C47.4883 27.8029 48.3624 26.8996 48.2214 25.698ZM59.701 25.5574H56.0201C55.9468 24.3063 55.7958 23.0876 55.5583 21.8326C55.534 21.7027 55.4209 21.6085 55.2894 21.6085H54.4408C54.3669 21.6085 54.297 21.6416 54.2491 21.6995C54.2011 21.7584 54.1824 21.8333 54.1965 21.9066C54.4376 23.1211 54.5903 24.3165 54.6657 25.5586H51.1244C50.9594 25.5586 50.8254 25.6922 50.8254 25.8565V26.6219C50.8254 26.7866 50.9594 26.9212 51.1244 26.9212H54.7164C54.7186 27.11 54.7205 27.2792 54.7205 27.4379C54.7205 28.5409 54.6729 29.4495 54.5617 30.4749C54.553 30.5542 54.5789 30.6331 54.6326 30.6912C54.6847 30.7499 54.7597 30.7833 54.8376 30.7833H55.6246C55.7783 30.7833 55.9055 30.6677 55.9209 30.5148C56.0284 29.4824 56.0745 28.5625 56.0745 27.4378C56.0745 27.2797 56.0728 27.11 56.0705 26.9211H59.7011C59.8657 26.9211 60 26.7865 60 26.6218V25.8565C59.9999 25.6914 59.8656 25.5574 59.701 25.5574Z" fill="#101C50"/>
<path d="M10.4829 15.3014C10.4307 15.3789 10.4181 15.474 10.4481 15.5634C10.4793 15.6525 10.5473 15.7203 10.6351 15.7511L11.295 15.9732C11.3349 15.9856 11.3745 15.9922 11.4134 15.9922C11.5357 15.9922 11.6505 15.9316 11.7184 15.83C13.8798 12.6549 16.8049 10.0112 20.1781 8.18481C23.6605 6.29901 27.606 5.30152 31.5893 5.30152C36.4006 5.30152 41.0428 6.72075 45.0143 9.40551C48.8896 12.0243 51.8991 15.6779 53.7179 19.9715C53.7722 20.1001 53.8977 20.1829 54.0368 20.1829H54.8248C54.9155 20.1829 55.001 20.1372 55.0523 20.0613C55.1039 19.9856 55.1136 19.8894 55.0793 19.8043C53.204 15.1877 50.0327 11.2522 45.9072 8.42487C41.6839 5.5303 36.7329 4 31.5893 4C23.0861 4 15.1956 8.22495 10.4829 15.3014Z" fill="url(#paint0_linear)"/>
<defs>
<linearGradient id="paint0_linear" x1="55.8302" y1="14.5221" x2="11.3699" y2="8.51081" gradientUnits="userSpaceOnUse">
<stop stop-color="#101C50"/>
<stop offset="0.236" stop-color="#0D267A"/>
<stop offset="0.4973" stop-color="#085AA4"/>
<stop offset="0.6549" stop-color="#058BBF"/>
<stop offset="1" stop-color="#B1FFFF"/>
</linearGradient>
</defs>
</svg>
