<svg width="38" height="33" viewBox="0 0 38 33" fill="none" xmlns="http://www.w3.org/2000/svg">
<path d="M22.7969 22.7344V23.9062H30.5156C34.7031 23.9062 37.125 21.3125 37.125 17.8438C37.125 15 35.4688 12.4844 32.3438 11.5469C32.5781 4.9375 27.9062 0 21.9375 0C17.6562 0 14.8125 2.39062 13.25 5.26562C9.71875 4.125 5.53125 6.67188 5.57812 10.875C2.25 11.1094 0 13.7031 0 17.125C0 20.9688 2.67188 23.9062 7.34375 23.9062H13.9375V22.7344H7.32812C3.34375 22.7344 1.15625 20.2969 1.15625 17.125C1.15625 14.1406 3.07812 11.8594 6.375 11.8594C6.54688 11.8594 6.625 11.75 6.625 11.5938C6.625 7.25 10.125 5.5 13.5156 6.46875C13.6719 6.51562 13.7656 6.48438 13.8594 6.34375C15.4219 3.59375 17.7969 1.15625 21.9375 1.15625C27.0469 1.15625 30.8281 5.17188 31.2188 10.3125C31.25 10.8594 31.2031 11.5 31.1875 12.1094C31.1875 12.2656 31.25 12.3594 31.3906 12.4062C34.2188 13.1094 35.9531 15.1875 35.9531 17.8438C35.9531 20.6719 34.0469 22.7344 30.4844 22.7344H22.7969ZM18.375 32.9219C18.5156 32.9219 18.6406 32.875 18.7812 32.75L24.5469 27.0312C24.6719 26.9219 24.7188 26.7969 24.7188 26.6562C24.7188 26.3594 24.4844 26.125 24.2031 26.125C24.0625 26.125 23.9062 26.2031 23.7812 26.3125L20.75 29.3438L18.9062 31.2188L18.9531 29.0312V14.5781C18.9531 14.2656 18.6875 14 18.375 14C18.0625 14 17.7969 14.2656 17.7969 14.5781V29.0312L17.8281 31.2344L15.9688 29.3438L12.9375 26.3125C12.8281 26.2031 12.6562 26.125 12.5156 26.125C12.2188 26.125 12 26.3594 12 26.6562C12 26.7969 12.0469 26.9219 12.1719 27.0312L17.9531 32.75C18.0938 32.875 18.2188 32.9219 18.375 32.9219Z" fill="black"/>
</svg>
