<svg width="60" height="40" viewBox="0 0 60 40" fill="none" xmlns="http://www.w3.org/2000/svg">
<path d="M16.5445 9.98068C16.5396 9.7274 16.4841 9.47766 16.3813 9.24611C16.2785 9.01455 16.1306 8.80584 15.9461 8.63222C15.7616 8.45859 15.5443 8.32354 15.307 8.23499C15.0696 8.14644 14.817 8.10616 14.5639 8.11652C14.0705 8.11988 13.5983 8.31736 13.2494 8.66623C12.9005 9.01511 12.7031 9.48731 12.6997 9.98068V30.37C12.7047 30.6232 12.7602 30.873 12.863 31.1045C12.9657 31.3361 13.1137 31.5448 13.2982 31.7184C13.4826 31.8921 13.6999 32.0271 13.9373 32.1157C14.1746 32.2042 14.4273 32.2445 14.6804 32.2341C15.1738 32.2308 15.646 32.0333 15.9948 31.6844C16.3437 31.3355 16.5412 30.8633 16.5445 30.37V9.98068Z" fill="#57DFB7"/>
<path d="M10.5442 8.64081C9.58881 8.22245 8.55784 8.00436 7.5149 8H7.10712C0 8.23302 0 15.2236 0 15.2236V30.4865C0.00453113 30.9656 0.185144 31.4262 0.507431 31.7808C0.829719 32.1353 1.27116 32.3588 1.74765 32.4089H1.92242C2.43091 32.4045 2.91733 32.2005 3.2769 31.8409C3.63647 31.4814 3.84042 30.995 3.84483 30.4865V19.7675C3.86862 19.7003 3.90711 19.6393 3.95751 19.5889C4.0079 19.5385 4.06892 19.5 4.13611 19.4763H7.39839C7.84645 19.4763 8.27616 19.2983 8.59298 18.9814C8.9098 18.6646 9.08779 18.2349 9.08779 17.7869C9.08779 17.3388 8.9098 16.9091 8.59298 16.5923C8.27616 16.2754 7.84645 16.0975 7.39839 16.0975H4.19437C4.0196 16.0975 3.90309 15.9227 3.84483 15.7479V14.8741C3.90477 13.928 4.2731 13.0277 4.89343 12.3109C5.61222 11.6638 6.54783 11.3104 7.5149 11.3205C8.07744 11.3183 8.63382 11.4375 9.14605 11.6701C9.54928 11.8435 10.0037 11.8555 10.4156 11.7038C10.8274 11.552 11.1654 11.2481 11.3597 10.8545C11.46 10.6634 11.5215 10.4544 11.5406 10.2394C11.5598 10.0245 11.5362 9.80787 11.4712 9.60208C11.4062 9.3963 11.3011 9.20541 11.162 9.04043C11.0229 8.87544 10.8525 8.73963 10.6607 8.64081C10.6024 8.69906 10.6024 8.64081 10.5442 8.64081V8.64081Z" fill="#57DFB7"/>
<path d="M26.5728 24.7029V22.4309C26.5728 21.9649 26.9223 21.7319 27.3301 21.9649L27.7379 22.1979C28.1456 22.4309 28.8447 22.8387 29.3107 23.0717L29.7185 23.3048C29.7839 23.3311 29.8433 23.3702 29.8934 23.4198C29.9435 23.4693 29.9833 23.5283 30.0104 23.5934C30.0375 23.6584 30.0514 23.7282 30.0513 23.7987C30.0512 23.8691 30.0371 23.9388 30.0098 24.0038C29.986 24.071 29.9475 24.132 29.8971 24.1824C29.8467 24.2328 29.7857 24.2713 29.7185 24.2951L29.3107 24.5281C28.903 24.7611 28.2039 25.1689 27.7379 25.4019L27.3301 25.5767C26.9223 25.8097 26.5728 25.635 26.5728 25.1107V24.7029V24.7029Z" fill="white"/>
<path d="M22.8514 23.793C22.8496 22.8131 23.126 21.8528 23.6485 21.0239C24.171 20.1949 24.9181 19.5313 25.8029 19.1103C26.6877 18.6892 27.6739 18.528 28.6467 18.6454C29.6196 18.7628 30.5391 19.1539 31.2984 19.7734C30.7248 18.9449 29.9585 18.2682 29.0655 17.8014C28.1726 17.3346 27.1795 17.0917 26.1719 17.0936C22.5601 17.0936 19.2978 20.0064 19.123 23.4434V23.793C19.122 25.6445 19.6977 27.4504 20.77 28.9598C21.8423 30.4693 23.3581 31.6073 25.1068 32.2158C26.8555 32.8243 28.7503 32.8731 30.528 32.3555C32.3057 31.8378 33.8781 30.7794 35.0267 29.3272C33.5918 30.5348 31.7756 31.1952 29.9002 31.1914C25.9389 31.1914 22.9679 28.1038 22.8514 23.9677V23.793V23.793Z" fill="#57DFB7"/>
<path d="M33.2207 23.7929C33.2176 25.1671 32.6704 26.484 31.6988 27.4557C30.7271 28.4273 29.4101 28.9746 28.036 28.9776C26.8474 28.9734 25.6961 28.5622 24.7737 27.8125C25.3473 28.641 26.1136 29.3177 27.0066 29.7845C27.8995 30.2513 28.8926 30.4942 29.9002 30.4923C33.512 30.4923 36.7743 27.5795 36.949 24.1425V23.7929C36.9501 21.9414 36.3744 20.1355 35.3021 18.6261C34.2298 17.1166 32.714 15.9786 30.9653 15.3701C29.2166 14.7616 27.3218 14.7128 25.5441 15.2304C23.7664 15.7481 22.194 16.8065 21.0454 18.2587C22.4803 17.0511 24.2965 16.3907 26.1719 16.3945C30.1332 16.3945 33.1042 19.4821 33.2207 23.6182V23.7929Z" fill="#57DFB7"/>
<path d="M53.478 25.7096L53.5363 25.5348L53.478 25.7678V25.7096Z" fill="#57DFB7"/>
<path d="M58.721 15.2819C58.2419 15.1147 57.7163 15.1434 57.2582 15.3615C56.8001 15.5796 56.4465 15.9697 56.2743 16.447L53.5946 25.4765C53.5946 25.4765 53.5363 25.593 53.4781 25.593C53.4198 25.593 53.3615 25.4765 53.3615 25.4765L50.6818 16.447C50.5561 16.0805 50.3213 15.7613 50.0089 15.5322C49.6965 15.3031 49.3214 15.1751 48.9342 15.1654C48.526 15.1457 48.1227 15.2605 47.786 15.4919C47.4493 15.7234 47.1978 16.0589 47.07 16.447L44.3903 25.4765C44.3903 25.4765 44.332 25.593 44.2738 25.593C44.2155 25.593 44.1572 25.4765 44.1572 25.4765L41.4775 16.447C41.3076 15.968 40.9543 15.5762 40.4955 15.3577C40.0366 15.1392 39.5098 15.1119 39.0308 15.2819C38.5518 15.4518 38.16 15.8051 37.9415 16.2639C37.723 16.7228 37.6957 17.2496 37.8657 17.7286L42.4678 30.8942C42.5995 31.2683 42.8439 31.5923 43.1673 31.8218C43.4907 32.0513 43.8772 32.175 44.2738 32.1758C44.6694 32.1711 45.0541 32.0459 45.3767 31.8169C45.6994 31.5879 45.9446 31.2661 46.0797 30.8942L48.8759 21.5152L51.6721 30.8942C51.8148 31.2611 52.0619 31.578 52.3829 31.8058C52.7039 32.0336 53.0847 32.1623 53.4781 32.1758C53.8746 32.175 54.2611 32.0513 54.5845 31.8218C54.9079 31.5923 55.1523 31.2683 55.284 30.8942L59.8861 17.7286C59.972 17.4916 60.0099 17.2398 59.9977 16.988C59.9855 16.7362 59.9234 16.4893 59.815 16.2617C59.7066 16.0341 59.5541 15.8302 59.3663 15.662C59.1785 15.4938 58.9592 15.3646 58.721 15.2819V15.2819Z" fill="#57DFB7"/>
</svg>
