<svg width="60" height="40" viewBox="0 0 60 40" fill="none" xmlns="http://www.w3.org/2000/svg">
<path d="M53.3815 23.1128C51.5433 23.1128 50.0509 21.6205 50.0509 19.7822C50.0509 17.9431 51.5433 16.4527 53.3815 16.4527C55.2207 16.4527 56.7101 17.9431 56.7101 19.7822C56.7101 21.6205 55.2207 23.1128 53.3815 23.1128ZM53.3567 13.1122C49.6862 13.1122 46.7114 16.088 46.7114 19.7575C46.7114 23.426 49.6862 26.4008 53.3567 26.4008C57.0252 26.4008 60 23.426 60 19.7575C60 16.088 57.0252 13.1122 53.3567 13.1122Z" fill="#A0A1A2"/>
<path d="M53.3563 17.145C51.9135 17.145 50.7432 18.3133 50.7432 19.7572C50.7432 21.199 51.9135 22.3693 53.3563 22.3693C54.7991 22.3693 55.9684 21.199 55.9684 19.7572C55.9684 18.3133 54.7991 17.145 53.3563 17.145Z" fill="#4279BB"/>
<path d="M39.8016 21.5597H43.5405C42.7061 23.9637 40.4319 23.5634 40.4319 23.5634C38.5947 23.5297 37.7325 22.0274 37.7325 22.0274C36.1956 19.3548 37.7325 17.3868 37.7325 17.3868C38.4331 16.1511 40.2694 16.0173 40.2694 16.0173C42.5059 16.0173 43.2739 17.6871 43.2739 17.6871H46.7452C45.8761 15.0313 43.3789 13.1119 40.4319 13.1119C36.7634 13.1119 33.7896 16.0877 33.7896 19.7572C33.7896 23.4257 36.7634 26.4015 40.4319 26.4015C44.1033 26.4015 47.0772 23.4257 47.0772 19.7572C47.0772 19.5084 47.0623 19.2637 47.0356 19.0229H39.8016V21.5597V21.5597Z" fill="#A0A1A2"/>
<path d="M25.6596 22.2189C27.0975 22.2189 28.2598 21.0535 28.2598 19.6166C28.2598 18.1788 27.0975 17.0134 25.6596 17.0134C24.2227 17.0134 23.0574 18.1788 23.0574 19.6166C23.0574 21.0535 24.2227 22.2189 25.6596 22.2189ZM22.3488 19.6166C22.3488 17.7863 23.8323 16.3059 25.6596 16.3059C27.4879 16.3059 28.9713 17.7863 28.9713 19.6166C28.9713 21.4439 27.4879 22.9264 25.6596 22.9264C23.8323 22.9264 22.3488 21.4439 22.3488 19.6166V19.6166ZM17.7399 19.6166C18.1482 19.5631 18.831 19.0964 19.0718 18.7961C18.9875 19.1677 18.9816 20.2409 19.0797 20.6105C18.8052 20.1884 18.1552 19.6681 17.7399 19.6166V19.6166ZM15.3597 16.1116C15.8799 16.1116 16.2892 16.625 16.2892 17.2106C16.2892 17.7943 15.8799 18.3096 15.3597 18.3096H13.571V16.1116H15.3597V16.1116ZM15.3527 20.994C15.874 20.994 16.2832 21.5074 16.2832 22.094C16.2832 22.6787 15.874 23.192 15.3527 23.192H13.5651V20.994H15.3527ZM25.6576 26.2867C29.3013 26.2857 32.2662 23.2574 32.2653 19.6146C32.2653 15.8926 29.3013 13.002 25.6576 13.0001C22.0169 12.9961 20.1579 15.6746 19.699 16.7567C19.703 15.1346 18.1036 13.2181 16.2317 13.2151H10.2028V26.2203L15.8234 26.2223C18.0907 26.2223 19.703 24.2592 19.705 22.5756C20.2242 23.6349 22.0169 26.2887 25.6576 26.2867V26.2867ZM9.46652 26.2252H5.9328V21.1793H3.63875V26.2252H0.0118856L0 13.2171H3.63876V18.0569H5.9328V13.2171H9.46652V26.2252H9.46652L9.46652 26.2252Z" fill="white"/>
</svg>
