<svg width="60" height="40" viewBox="0 0 60 40" fill="none" xmlns="http://www.w3.org/2000/svg">
<path d="M8.25018 27.236C7.3476 27.3952 6.42914 27.4429 5.47904 27.57L2.58111 19.0455V27.9359C1.67854 28.0313 0.855117 28.1585 0 28.2857V12H2.40703L5.7007 21.2404V12H8.25018V27.236ZM13.2383 17.964C14.2202 17.964 15.7245 17.9163 16.6271 17.9163V20.4609C15.5027 20.4609 14.1885 20.4609 13.2383 20.5086V24.2938C14.7269 24.1984 16.2154 24.0711 17.7197 24.0234V26.4724L10.7046 27.0292V12H17.7197V14.5446H13.2383V17.964V17.964ZM27.1417 14.5447H24.513V26.25C23.6579 26.25 22.8028 26.25 21.9795 26.2818V14.5447H19.3509V12H27.1418L27.1417 14.5447V14.5447ZM31.2588 17.7891H34.7268V20.3337H31.2588V26.1069H28.7725V12H35.8511V14.5446H31.2588V17.7891V17.7891ZM39.9683 23.8803C41.4093 23.912 42.8661 24.0235 44.2755 24.1029V26.6158C42.0111 26.4725 39.7466 26.3296 37.4347 26.2818V12H39.9683V23.8803ZM46.4132 26.7907C47.2208 26.8385 48.0759 26.8863 48.8994 26.9815V12H46.4132V26.7907V26.7907ZM60 12L56.7854 19.7453L60 28.2857C59.0498 28.1585 58.0997 27.9835 57.1495 27.8245L55.3286 23.117L53.476 27.4429C52.5574 27.2837 51.6706 27.236 50.7523 27.1088L54.0144 19.6498L51.0689 12H53.7925L55.4552 16.2782L57.2288 12H60V12Z" fill="#D81F26"/>
</svg>
