<svg width="236" height="220" viewBox="0 0 236 220" fill="none" xmlns="http://www.w3.org/2000/svg">
<path fill-rule="evenodd" clip-rule="evenodd" d="M198.188 20.3941L195.917 20.0437L196.172 18.3917L198.443 18.7422C201.18 19.1644 203.057 21.7256 202.635 24.4626L202.284 26.734L200.632 26.4792L200.983 24.2077C201.264 22.383 200.013 20.6756 198.188 20.3941ZM188.622 104.327L188.972 102.056L190.624 102.311L190.274 104.582C189.851 107.319 187.29 109.196 184.553 108.773L182.075 108.391L182.33 106.739L184.808 107.122C186.633 107.403 188.34 106.152 188.622 104.327Z" fill="#D81F26"/>
<path fill-rule="evenodd" clip-rule="evenodd" d="M163.136 14.9862L153.121 13.4411L153.376 11.7892L163.391 13.3343L163.136 14.9862ZM183.166 18.0765L173.151 16.5314L173.406 14.8794L183.421 16.4245L183.166 18.0765ZM198.188 20.3941L193.181 19.6216L193.436 17.9696L198.443 18.7422C199.114 18.8456 199.734 19.0782 200.282 19.4113L199.414 20.8396C199.051 20.6186 198.638 20.4635 198.188 20.3941ZM200.983 24.2078C201.052 23.7583 201.028 23.3179 200.927 22.9047L202.551 22.5073C202.703 23.1302 202.738 23.7922 202.635 24.4626L201.862 29.4701L200.21 29.2152L200.983 24.2078ZM197.12 49.2451L198.665 39.2302L200.317 39.4851L198.772 49.5L197.12 49.2451ZM194.03 69.275L195.575 59.2601L197.227 59.515L195.682 69.5299L194.03 69.275ZM190.939 89.305L192.484 79.29L194.136 79.5449L192.591 89.5598L190.939 89.305ZM188.622 104.327L189.394 99.3199L191.046 99.5748L190.274 104.582C190.17 105.253 189.938 105.873 189.605 106.421L188.176 105.553C188.397 105.19 188.552 104.777 188.622 104.327ZM184.808 107.122C185.258 107.191 185.698 107.167 186.111 107.066L186.509 108.69C185.886 108.842 185.224 108.877 184.553 108.774L179.546 108.001L179.801 106.349L184.808 107.122Z" fill="#D81F26"/>
<path fill-rule="evenodd" clip-rule="evenodd" d="M39.8234 21.3432C37.4483 21.7549 35.8566 24.014 36.2683 26.389L36.5944 28.2705L34.4441 28.6432L34.118 26.7617C33.5006 23.1991 35.8881 19.8105 39.4507 19.193L41.6009 18.8203L41.9736 20.9705L39.8234 21.3432ZM144.11 3.26829L141.153 3.78073L140.78 1.6305L143.737 1.11806C147.299 0.500589 150.688 2.8881 151.306 6.45072L151.818 9.40728L149.668 9.77996L149.155 6.8234C148.744 4.44832 146.485 2.85664 144.11 3.26829ZM167.23 111.11L166.718 108.153L168.868 107.78L169.381 110.737C169.998 114.299 167.61 117.688 164.048 118.306L160.823 118.865L160.45 116.714L163.675 116.155C166.05 115.744 167.642 113.485 167.23 111.11ZM53.8774 127.987L54.3432 130.675C54.7549 133.05 57.0139 134.642 59.389 134.23L62.3456 133.718L62.7183 135.868L59.7617 136.381C56.1991 136.998 52.8104 134.611 52.193 131.048L51.7271 128.36L53.8774 127.987Z" fill="#D81F26"/>
<path fill-rule="evenodd" clip-rule="evenodd" d="M39.8234 21.3432C39.2383 21.4446 38.7032 21.6571 38.234 21.9544L37.0661 20.1109C37.7734 19.6628 38.578 19.3443 39.4507 19.193L45.9686 18.0633L46.3413 20.2135L39.8234 21.3432ZM72.4128 15.6948L59.377 17.9542L59.0043 15.8039L72.0401 13.5446L72.4128 15.6948ZM98.4843 11.1761L85.4486 13.4354L85.0759 11.2852L98.1117 9.02585L98.4843 11.1761ZM124.556 6.65734L111.52 8.91671L111.147 6.76648L124.183 4.50711L124.556 6.65734ZM144.11 3.26829L137.592 4.39798L137.219 2.24775L143.737 1.11806C144.61 0.96681 145.474 0.996011 146.291 1.17995L145.812 3.30893C145.27 3.1869 144.695 3.16689 144.11 3.26829ZM36.3089 24.6867C36.1869 25.2286 36.1669 25.804 36.2683 26.389L37.398 32.9069L35.2477 33.2796L34.118 26.7617C33.9668 25.889 33.996 25.0241 34.1799 24.2073L36.3089 24.6867ZM149.155 6.8234C149.054 6.23831 148.841 5.70323 148.544 5.234L150.388 4.0661C150.836 4.7734 151.154 5.57804 151.306 6.45072L152.435 12.9686L150.285 13.3413L149.155 6.8234ZM39.6573 45.9427L41.9167 58.9785L39.7665 59.3512L37.5071 46.3154L39.6573 45.9427ZM154.804 39.4128L152.544 26.3771L154.695 26.0044L156.954 39.0401L154.804 39.4128ZM44.1761 72.0142L46.4354 85.05L44.2852 85.4227L42.0258 72.3869L44.1761 72.0142ZM159.323 65.4844L157.063 52.4486L159.213 52.0759L161.473 65.1117L159.323 65.4844ZM48.6948 98.0858L50.9542 111.122L48.8039 111.494L46.5446 98.4585L48.6948 98.0858ZM163.841 91.5559L161.582 78.5201L163.732 78.1475L165.991 91.1832L163.841 91.5559ZM53.2135 124.157L54.3432 130.675C54.4446 131.26 54.6571 131.795 54.9544 132.265L53.1109 133.433C52.6628 132.725 52.3442 131.921 52.193 131.048L51.0633 124.53L53.2135 124.157ZM167.23 111.11L166.101 104.592L168.251 104.219L169.381 110.737C169.532 111.61 169.503 112.474 169.319 113.291L167.19 112.812C167.312 112.27 167.332 111.695 167.23 111.11ZM57.6867 134.19C58.2286 134.312 58.8039 134.332 59.389 134.23L65.9069 133.101L66.2796 135.251L59.7617 136.381C58.889 136.532 58.0241 136.503 57.2073 136.319L57.6867 134.19ZM163.675 116.155C164.26 116.054 164.795 115.841 165.265 115.544L166.432 117.388C165.725 117.836 164.921 118.154 164.048 118.306L157.53 119.435L157.157 117.285L163.675 116.155ZM78.9427 130.841L91.9784 128.582L92.3511 130.732L79.3154 132.991L78.9427 130.841ZM105.014 126.323L118.05 124.063L118.423 126.213L105.387 128.473L105.014 126.323ZM131.086 121.804L144.122 119.544L144.494 121.695L131.458 123.954L131.086 121.804Z" fill="#D81F26"/>
<path d="M135.392 50.6589L139.054 50.0242L139.53 52.7708L135.868 53.4055L135.392 50.6589Z" fill="#D81F26"/>
<path d="M133.438 55.7125L139.847 54.6018L140.323 57.3483L133.915 58.4591L133.438 55.7125Z" fill="#D81F26"/>
<path d="M131.485 60.7662L140.641 59.1794L141.117 61.926L131.961 63.5128L131.485 60.7662Z" fill="#D81F26"/>
<path d="M61.8667 45.4829L66.4164 39.0255L68.9139 40.7852L64.3643 47.2426L61.8667 45.4829Z" fill="#D81F26"/>
<path d="M56.5703 41.7513L61.12 35.2939L63.6175 37.0536L59.0679 43.511L56.5703 41.7513Z" fill="#D81F26"/>
<path d="M143.16 67.7329C144.349 67.5233 145.405 66.8522 146.1 65.8659C146.795 64.8797 147.071 63.6586 146.869 62.4693L139.612 20.5992C139.402 19.4111 138.731 18.3542 137.745 17.6594C136.759 16.9645 135.538 16.6881 134.348 16.8906L53.5989 30.8862C52.4108 31.0957 51.3539 31.7669 50.6591 32.7531C49.9642 33.7394 49.6878 34.9605 49.8903 36.1498L57.1473 78.0199C57.3569 79.208 58.028 80.2649 59.0143 80.9597C60.0005 81.6546 61.2216 81.9309 62.4109 81.7285L79.8917 78.6987C80.6045 79.7271 81.4999 80.616 82.5334 81.3214L82.369 81.3499C81.1809 81.5595 80.124 82.2307 79.4291 83.2169C78.7343 84.2031 78.4579 85.4242 78.6604 86.6135L78.9196 88.1089L72.9381 89.1456C71.7501 89.3552 70.6932 90.0264 69.9983 91.0126C69.3035 91.9988 69.0271 93.2199 69.2296 94.4092L69.7479 97.3999L65.2618 98.1775C64.0738 98.387 63.0169 99.0582 62.322 100.044C61.6272 101.031 61.3508 102.252 61.5533 103.441L64.4042 119.89C64.473 120.287 64.6964 120.64 65.0255 120.872C65.3545 121.103 65.7622 121.195 66.1588 121.126L75.1309 119.571C75.5275 119.502 75.8806 119.279 76.1124 118.95C76.3442 118.621 76.4359 118.213 76.3671 117.817L76.108 116.321L141.904 104.917L142.163 106.413C142.232 106.809 142.455 107.162 142.784 107.394C143.113 107.626 143.521 107.718 143.918 107.649L152.89 106.094C153.286 106.025 153.639 105.802 153.871 105.473C154.103 105.144 154.195 104.736 154.126 104.339L151.275 87.8905C151.065 86.7024 150.394 85.6455 149.408 84.9506C148.422 84.2558 147.201 83.9794 146.011 84.1819L141.525 84.9594L141.007 81.9687C140.797 80.7806 140.126 79.7238 139.14 79.0289C138.154 78.334 136.933 78.0577 135.743 78.2602L129.762 79.2969L129.503 77.8015C129.293 76.6134 128.622 75.5565 127.636 74.8617C126.65 74.1668 125.428 73.8905 124.239 74.0929L124.075 74.1215C124.81 73.1094 125.354 71.971 125.68 70.7627L143.16 67.7329ZM73.1172 116.84L67.1358 117.876L64.544 102.923C64.4753 102.526 64.5669 102.118 64.7987 101.789C65.0306 101.46 65.3836 101.237 65.7802 101.168L70.2663 100.391L73.1172 116.84ZM142.044 87.9502L146.53 87.1726C146.926 87.1039 147.334 87.1955 147.663 87.4273C147.992 87.6592 148.216 88.0122 148.284 88.4088L150.876 103.362L144.895 104.399L142.044 87.9502ZM78.4612 75.8661L61.8925 78.7378C61.4959 78.8065 61.0883 78.7149 60.7593 78.483C60.4302 78.2512 60.2067 77.8982 60.138 77.5016L52.881 35.6314C52.8123 35.2348 52.9039 34.8272 53.1358 34.4981C53.3676 34.1691 53.7206 33.9456 54.1172 33.8769L134.867 19.8813C135.263 19.8126 135.671 19.9042 136 20.136C136.329 20.3679 136.553 20.7209 136.621 21.1175L143.878 62.9877C143.947 63.3842 143.855 63.7919 143.624 64.1209C143.392 64.45 143.039 64.6735 142.642 64.7422L126.073 67.6139C126.065 67.1057 126.019 66.5989 125.934 66.0978C125.453 63.3216 123.888 60.8503 121.585 59.2275C119.282 57.6047 116.428 56.9633 113.652 57.4445C110.876 57.9256 108.405 59.4899 106.782 61.7932C105.159 64.0965 104.518 66.9501 104.999 69.7263C105.088 70.2267 105.214 70.7196 105.378 71.2009L99.157 72.2791C99.1488 71.7709 99.1021 71.2641 99.0174 70.763C98.5363 67.9868 96.972 65.5155 94.6687 63.8927C92.3654 62.2699 89.5118 61.6285 86.7356 62.1097C83.9595 62.5908 81.4882 64.1551 79.8654 66.4584C78.2425 68.7617 77.6012 71.6153 78.0823 74.3914C78.1712 74.8918 78.2978 75.3848 78.4612 75.8661V75.8661ZM97.3226 78.7581L97.1581 78.7866C97.8939 77.7746 98.438 76.6362 98.7631 75.4279L106.808 74.0335C107.521 75.0619 108.416 75.9508 109.45 76.6562L109.285 76.6847C108.097 76.8943 107.041 77.5655 106.346 78.5517C105.651 79.5379 105.374 80.759 105.577 81.9483L105.836 83.4437L102.845 83.962L102.586 82.4667C102.377 81.2786 101.705 80.2217 100.719 79.5269C99.733 78.832 98.5119 78.5557 97.3226 78.7581V78.7581ZM81.0731 73.8731C80.8168 72.3943 81.0047 70.8727 81.6132 69.5008C82.2216 68.1289 83.2233 66.9681 84.4914 66.1654C85.7595 65.3628 87.2372 64.9541 88.7376 64.9912C90.2379 65.0284 91.6936 65.5096 92.9205 66.374C94.1473 67.2384 95.0903 68.4472 95.6302 69.8476C96.1701 71.2479 96.2826 72.7769 95.9535 74.2412C95.6244 75.7055 94.8684 77.0393 93.7813 78.074C92.6941 79.1087 91.3245 79.7977 89.8458 80.054C87.8628 80.3977 85.8245 79.9396 84.1793 78.7804C82.5341 77.6213 81.4168 75.8561 81.0731 73.8731V73.8731ZM81.6511 86.0952C81.5824 85.6986 81.674 85.2909 81.9058 84.9619C82.1377 84.6328 82.4907 84.4094 82.8873 84.3406L97.8409 81.7489C98.2375 81.6801 98.6452 81.7717 98.9742 82.0036C99.3033 82.2354 99.5267 82.5884 99.5955 82.985L99.8546 84.4804L81.9103 87.5905L81.6511 86.0952ZM136.262 81.2509C136.658 81.1821 137.066 81.2738 137.395 81.5056C137.724 81.7374 137.947 82.0905 138.016 82.4871L141.386 101.927L75.5896 113.331L72.2203 93.8909C72.1516 93.4943 72.2432 93.0866 72.475 92.7576C72.7068 92.4285 73.0599 92.205 73.4565 92.1363L136.262 81.2509ZM124.757 77.0837C125.154 77.0149 125.562 77.1066 125.891 77.3384C126.22 77.5702 126.443 77.9233 126.512 78.3199L126.771 79.8152L108.827 82.9253L108.568 81.43C108.499 81.0334 108.591 80.6257 108.822 80.2967C109.054 79.9676 109.407 79.7442 109.804 79.6754L124.757 77.0837ZM116.762 75.3888C115.284 75.6451 113.762 75.4572 112.39 74.8487C111.018 74.2403 109.857 73.2386 109.055 71.9705C108.252 70.7024 107.843 69.2247 107.88 67.7243C107.918 66.224 108.399 64.7683 109.263 63.5414C110.128 62.3146 111.336 61.3716 112.737 60.8317C114.137 60.2918 115.666 60.1793 117.13 60.5084C118.595 60.8375 119.929 61.5935 120.963 62.6806C121.998 63.7678 122.687 65.1374 122.943 66.6161C123.287 68.5991 122.829 70.6374 121.67 72.2826C120.51 73.9278 118.745 75.0451 116.762 75.3888V75.3888Z" fill="#D81F26"/>
<path d="M110.543 42.7393L90.9221 36.8425C90.6731 36.7668 90.4088 36.756 90.1544 36.8111C89.9 36.8663 89.6639 36.9855 89.4685 37.1576C89.2731 37.3296 89.125 37.5487 89.0382 37.7941C88.9513 38.0395 88.9287 38.303 88.9724 38.5595L92.1013 56.6124C92.1451 56.8682 92.2534 57.1086 92.4159 57.3108C92.5784 57.5131 92.7898 57.6707 93.0301 57.7686C93.2956 57.8744 93.5852 57.9046 93.8668 57.856C94.1016 57.8122 94.3233 57.7155 94.5152 57.5732L111.007 45.4172C111.232 45.2482 111.406 45.0205 111.509 44.7593C111.613 44.498 111.642 44.2132 111.594 43.9364C111.546 43.6595 111.422 43.4012 111.237 43.19C111.052 42.9788 110.812 42.8228 110.543 42.7393ZM94.6883 53.6537L92.4042 40.4751L106.728 44.7798L94.6883 53.6537Z" fill="#D81F26"/>
<path d="M8.30225 174.254L2.71625 165.749H6.03425L9.68825 171.671L13.3843 165.749H16.5343L10.9483 174.254V180.617H8.30225V174.254ZM15.2341 175.577C15.2341 174.779 15.3741 174.058 15.6541 173.414C15.9481 172.756 16.3401 172.196 16.8301 171.734C17.3201 171.272 17.9011 170.915 18.5731 170.663C19.2451 170.411 19.9591 170.285 20.7151 170.285C21.4711 170.285 22.1851 170.411 22.8571 170.663C23.5291 170.915 24.1101 171.272 24.6001 171.734C25.0901 172.196 25.4751 172.756 25.7551 173.414C26.0491 174.058 26.1961 174.779 26.1961 175.577C26.1961 176.375 26.0491 177.103 25.7551 177.761C25.4751 178.405 25.0901 178.958 24.6001 179.42C24.1101 179.882 23.5291 180.239 22.8571 180.491C22.1851 180.743 21.4711 180.869 20.7151 180.869C19.9591 180.869 19.2451 180.743 18.5731 180.491C17.9011 180.239 17.3201 179.882 16.8301 179.42C16.3401 178.958 15.9481 178.405 15.6541 177.761C15.3741 177.103 15.2341 176.375 15.2341 175.577ZM17.7541 175.577C17.7541 175.969 17.8171 176.347 17.9431 176.711C18.0831 177.075 18.2791 177.397 18.5311 177.677C18.7971 177.957 19.1121 178.181 19.4761 178.349C19.8401 178.517 20.2531 178.601 20.7151 178.601C21.1771 178.601 21.5901 178.517 21.9541 178.349C22.3181 178.181 22.6261 177.957 22.8781 177.677C23.1441 177.397 23.3401 177.075 23.4661 176.711C23.6061 176.347 23.6761 175.969 23.6761 175.577C23.6761 175.185 23.6061 174.807 23.4661 174.443C23.3401 174.079 23.1441 173.757 22.8781 173.477C22.6261 173.197 22.3181 172.973 21.9541 172.805C21.5901 172.637 21.1771 172.553 20.7151 172.553C20.2531 172.553 19.8401 172.637 19.4761 172.805C19.1121 172.973 18.7971 173.197 18.5311 173.477C18.2791 173.757 18.0831 174.079 17.9431 174.443C17.8171 174.807 17.7541 175.185 17.7541 175.577ZM37.7534 180.617H35.3594V179H35.3174C35.0794 179.504 34.7154 179.945 34.2254 180.323C33.7354 180.687 33.0704 180.869 32.2304 180.869C31.5584 180.869 30.9844 180.764 30.5084 180.554C30.0464 180.33 29.6684 180.036 29.3744 179.672C29.0804 179.294 28.8704 178.867 28.7444 178.391C28.6184 177.915 28.5554 177.418 28.5554 176.9V170.537H31.0754V175.64C31.0754 175.92 31.0894 176.235 31.1174 176.585C31.1454 176.921 31.2154 177.243 31.3274 177.551C31.4534 177.845 31.6354 178.097 31.8734 178.307C32.1254 178.503 32.4754 178.601 32.9234 178.601C33.3434 178.601 33.6934 178.531 33.9734 178.391C34.2674 178.251 34.5054 178.062 34.6874 177.824C34.8834 177.586 35.0234 177.313 35.1074 177.005C35.1914 176.697 35.2334 176.375 35.2334 176.039V170.537H37.7534V180.617ZM49.3479 171.944H49.3899C49.5859 171.524 49.9289 171.146 50.4189 170.81C50.9229 170.46 51.5669 170.285 52.3509 170.285C53.0229 170.285 53.5899 170.397 54.0519 170.621C54.5279 170.845 54.9129 171.139 55.2069 171.503C55.5009 171.867 55.7109 172.287 55.8369 172.763C55.9629 173.239 56.0259 173.736 56.0259 174.254V180.617H53.5059V175.514C53.5059 175.234 53.4919 174.926 53.4639 174.59C53.4359 174.24 53.3589 173.918 53.2329 173.624C53.1209 173.316 52.9389 173.064 52.6869 172.868C52.4349 172.658 52.0919 172.553 51.6579 172.553C51.2379 172.553 50.8809 172.623 50.5869 172.763C50.3069 172.903 50.0689 173.092 49.8729 173.33C49.6909 173.568 49.5579 173.841 49.4739 174.149C49.3899 174.457 49.3479 174.779 49.3479 175.115V180.617H46.8279V164.741H49.3479V171.944ZM65.1865 179.231H65.1235C64.7595 179.805 64.2975 180.225 63.7375 180.491C63.1775 180.743 62.5615 180.869 61.8895 180.869C61.4275 180.869 60.9725 180.806 60.5245 180.68C60.0905 180.554 59.6985 180.365 59.3485 180.113C59.0125 179.861 58.7395 179.546 58.5295 179.168C58.3195 178.79 58.2145 178.349 58.2145 177.845C58.2145 177.299 58.3125 176.837 58.5085 176.459C58.7045 176.067 58.9635 175.745 59.2855 175.493C59.6215 175.227 60.0065 175.017 60.4405 174.863C60.8745 174.709 61.3225 174.597 61.7845 174.527C62.2605 174.443 62.7365 174.394 63.2125 174.38C63.6885 174.352 64.1365 174.338 64.5565 174.338H65.1865V174.065C65.1865 173.435 64.9695 172.966 64.5355 172.658C64.1015 172.336 63.5485 172.175 62.8765 172.175C62.3445 172.175 61.8475 172.273 61.3855 172.469C60.9235 172.651 60.5245 172.903 60.1885 173.225L58.8655 171.902C59.4255 171.328 60.0765 170.915 60.8185 170.663C61.5745 170.411 62.3515 170.285 63.1495 170.285C63.8635 170.285 64.4655 170.369 64.9555 170.537C65.4455 170.691 65.8515 170.894 66.1735 171.146C66.4955 171.398 66.7405 171.692 66.9085 172.028C67.0905 172.35 67.2165 172.679 67.2865 173.015C67.3705 173.351 67.4195 173.68 67.4335 174.002C67.4475 174.31 67.4545 174.583 67.4545 174.821V180.617H65.1865V179.231ZM65.0395 176.102H64.5145C64.1645 176.102 63.7725 176.116 63.3385 176.144C62.9045 176.172 62.4915 176.242 62.0995 176.354C61.7215 176.452 61.3995 176.606 61.1335 176.816C60.8675 177.012 60.7345 177.292 60.7345 177.656C60.7345 177.894 60.7835 178.097 60.8815 178.265C60.9935 178.419 61.1335 178.552 61.3015 178.664C61.4695 178.776 61.6585 178.86 61.8685 178.916C62.0785 178.958 62.2885 178.979 62.4985 178.979C63.3665 178.979 64.0035 178.776 64.4095 178.37C64.8295 177.95 65.0395 177.383 65.0395 176.669V176.102ZM68.8008 170.537H71.5518L74.2398 177.593H74.2818L76.9908 170.537H79.5738L75.6048 180.617H72.9168L68.8008 170.537ZM83.0714 176.459C83.1554 177.215 83.4494 177.803 83.9534 178.223C84.4574 178.643 85.0664 178.853 85.7804 178.853C86.4104 178.853 86.9354 178.727 87.3554 178.475C87.7894 178.209 88.1674 177.88 88.4894 177.488L90.2954 178.853C89.7074 179.581 89.0494 180.099 88.3214 180.407C87.5934 180.715 86.8304 180.869 86.0324 180.869C85.2764 180.869 84.5624 180.743 83.8904 180.491C83.2184 180.239 82.6374 179.882 82.1474 179.42C81.6574 178.958 81.2654 178.405 80.9714 177.761C80.6914 177.103 80.5514 176.375 80.5514 175.577C80.5514 174.779 80.6914 174.058 80.9714 173.414C81.2654 172.756 81.6574 172.196 82.1474 171.734C82.6374 171.272 83.2184 170.915 83.8904 170.663C84.5624 170.411 85.2764 170.285 86.0324 170.285C86.7324 170.285 87.3694 170.411 87.9434 170.663C88.5314 170.901 89.0284 171.251 89.4344 171.713C89.8544 172.175 90.1764 172.749 90.4004 173.435C90.6384 174.107 90.7574 174.884 90.7574 175.766V176.459H83.0714ZM88.2374 174.569C88.2234 173.827 87.9924 173.246 87.5444 172.826C87.0964 172.392 86.4734 172.175 85.6754 172.175C84.9194 172.175 84.3174 172.392 83.8694 172.826C83.4354 173.26 83.1694 173.841 83.0714 174.569H88.2374ZM99.3279 170.537H101.722V172.154H101.764C102.002 171.65 102.366 171.216 102.856 170.852C103.346 170.474 104.011 170.285 104.851 170.285C105.523 170.285 106.09 170.397 106.552 170.621C107.028 170.845 107.413 171.139 107.707 171.503C108.001 171.867 108.211 172.287 108.337 172.763C108.463 173.239 108.526 173.736 108.526 174.254V180.617H106.006V175.514C106.006 175.234 105.992 174.926 105.964 174.59C105.936 174.24 105.859 173.918 105.733 173.624C105.621 173.316 105.439 173.064 105.187 172.868C104.935 172.658 104.592 172.553 104.158 172.553C103.738 172.553 103.381 172.623 103.087 172.763C102.807 172.903 102.569 173.092 102.373 173.33C102.191 173.568 102.058 173.841 101.974 174.149C101.89 174.457 101.848 174.779 101.848 175.115V180.617H99.3279V170.537ZM110.882 175.577C110.882 174.779 111.022 174.058 111.302 173.414C111.596 172.756 111.988 172.196 112.478 171.734C112.968 171.272 113.549 170.915 114.221 170.663C114.893 170.411 115.607 170.285 116.363 170.285C117.119 170.285 117.833 170.411 118.505 170.663C119.177 170.915 119.758 171.272 120.248 171.734C120.738 172.196 121.123 172.756 121.403 173.414C121.697 174.058 121.844 174.779 121.844 175.577C121.844 176.375 121.697 177.103 121.403 177.761C121.123 178.405 120.738 178.958 120.248 179.42C119.758 179.882 119.177 180.239 118.505 180.491C117.833 180.743 117.119 180.869 116.363 180.869C115.607 180.869 114.893 180.743 114.221 180.491C113.549 180.239 112.968 179.882 112.478 179.42C111.988 178.958 111.596 178.405 111.302 177.761C111.022 177.103 110.882 176.375 110.882 175.577ZM113.402 175.577C113.402 175.969 113.465 176.347 113.591 176.711C113.731 177.075 113.927 177.397 114.179 177.677C114.445 177.957 114.76 178.181 115.124 178.349C115.488 178.517 115.901 178.601 116.363 178.601C116.825 178.601 117.238 178.517 117.602 178.349C117.966 178.181 118.274 177.957 118.526 177.677C118.792 177.397 118.988 177.075 119.114 176.711C119.254 176.347 119.324 175.969 119.324 175.577C119.324 175.185 119.254 174.807 119.114 174.443C118.988 174.079 118.792 173.757 118.526 173.477C118.274 173.197 117.966 172.973 117.602 172.805C117.238 172.637 116.825 172.553 116.363 172.553C115.901 172.553 115.488 172.637 115.124 172.805C114.76 172.973 114.445 173.197 114.179 173.477C113.927 173.757 113.731 174.079 113.591 174.443C113.465 174.807 113.402 175.185 113.402 175.577ZM131.321 172.679H129.242V170.537H131.321V169.109C131.321 168.409 131.37 167.779 131.468 167.219C131.566 166.645 131.748 166.155 132.014 165.749C132.294 165.343 132.679 165.035 133.169 164.825C133.659 164.601 134.296 164.489 135.08 164.489C135.654 164.489 136.186 164.538 136.676 164.636L136.508 166.778C136.326 166.736 136.151 166.701 135.983 166.673C135.815 166.645 135.64 166.631 135.458 166.631C135.108 166.631 134.828 166.687 134.618 166.799C134.408 166.911 134.24 167.065 134.114 167.261C134.002 167.443 133.925 167.66 133.883 167.912C133.855 168.164 133.841 168.43 133.841 168.71V170.537H136.172V172.679H133.841V180.617H131.321V172.679ZM137.801 170.537H140.321V172.133H140.363C140.643 171.545 141.042 171.09 141.56 170.768C142.078 170.446 142.673 170.285 143.345 170.285C143.499 170.285 143.646 170.299 143.786 170.327C143.94 170.355 144.094 170.39 144.248 170.432V172.868C144.038 172.812 143.828 172.77 143.618 172.742C143.422 172.7 143.226 172.679 143.03 172.679C142.442 172.679 141.966 172.791 141.602 173.015C141.252 173.225 140.979 173.47 140.783 173.75C140.601 174.03 140.475 174.31 140.405 174.59C140.349 174.87 140.321 175.08 140.321 175.22V180.617H137.801V170.537ZM146.005 170.537H148.525V180.617H146.005V170.537ZM145.648 167.114C145.648 166.708 145.795 166.358 146.089 166.064C146.397 165.756 146.782 165.602 147.244 165.602C147.706 165.602 148.091 165.749 148.399 166.043C148.721 166.323 148.882 166.68 148.882 167.114C148.882 167.548 148.721 167.912 148.399 168.206C148.091 168.486 147.706 168.626 147.244 168.626C146.782 168.626 146.397 168.479 146.089 168.185C145.795 167.877 145.648 167.52 145.648 167.114ZM153.434 176.459C153.518 177.215 153.812 177.803 154.316 178.223C154.82 178.643 155.429 178.853 156.143 178.853C156.773 178.853 157.298 178.727 157.718 178.475C158.152 178.209 158.53 177.88 158.852 177.488L160.658 178.853C160.07 179.581 159.412 180.099 158.684 180.407C157.956 180.715 157.193 180.869 156.395 180.869C155.639 180.869 154.925 180.743 154.253 180.491C153.581 180.239 153 179.882 152.51 179.42C152.02 178.958 151.628 178.405 151.334 177.761C151.054 177.103 150.914 176.375 150.914 175.577C150.914 174.779 151.054 174.058 151.334 173.414C151.628 172.756 152.02 172.196 152.51 171.734C153 171.272 153.581 170.915 154.253 170.663C154.925 170.411 155.639 170.285 156.395 170.285C157.095 170.285 157.732 170.411 158.306 170.663C158.894 170.901 159.391 171.251 159.797 171.713C160.217 172.175 160.539 172.749 160.763 173.435C161.001 174.107 161.12 174.884 161.12 175.766V176.459H153.434ZM158.6 174.569C158.586 173.827 158.355 173.246 157.907 172.826C157.459 172.392 156.836 172.175 156.038 172.175C155.282 172.175 154.68 172.392 154.232 172.826C153.798 173.26 153.532 173.841 153.434 174.569H158.6ZM163.476 170.537H165.87V172.154H165.912C166.15 171.65 166.514 171.216 167.004 170.852C167.494 170.474 168.159 170.285 168.999 170.285C169.671 170.285 170.238 170.397 170.7 170.621C171.176 170.845 171.561 171.139 171.855 171.503C172.149 171.867 172.359 172.287 172.485 172.763C172.611 173.239 172.674 173.736 172.674 174.254V180.617H170.154V175.514C170.154 175.234 170.14 174.926 170.112 174.59C170.084 174.24 170.007 173.918 169.881 173.624C169.769 173.316 169.587 173.064 169.335 172.868C169.083 172.658 168.74 172.553 168.306 172.553C167.886 172.553 167.529 172.623 167.235 172.763C166.955 172.903 166.717 173.092 166.521 173.33C166.339 173.568 166.206 173.841 166.122 174.149C166.038 174.457 165.996 174.779 165.996 175.115V180.617H163.476V170.537ZM183.515 179.105H183.473C183.109 179.721 182.619 180.169 182.003 180.449C181.387 180.729 180.722 180.869 180.008 180.869C179.224 180.869 178.524 180.736 177.908 180.47C177.306 180.19 176.788 179.812 176.354 179.336C175.92 178.86 175.591 178.3 175.367 177.656C175.143 177.012 175.031 176.319 175.031 175.577C175.031 174.835 175.15 174.142 175.388 173.498C175.626 172.854 175.955 172.294 176.375 171.818C176.809 171.342 177.327 170.971 177.929 170.705C178.531 170.425 179.189 170.285 179.903 170.285C180.379 170.285 180.799 170.334 181.163 170.432C181.527 170.53 181.849 170.656 182.129 170.81C182.409 170.964 182.647 171.132 182.843 171.314C183.039 171.482 183.2 171.65 183.326 171.818H183.389V164.741H185.909V180.617H183.515V179.105ZM177.551 175.577C177.551 175.969 177.614 176.347 177.74 176.711C177.88 177.075 178.076 177.397 178.328 177.677C178.594 177.957 178.909 178.181 179.273 178.349C179.637 178.517 180.05 178.601 180.512 178.601C180.974 178.601 181.387 178.517 181.751 178.349C182.115 178.181 182.423 177.957 182.675 177.677C182.941 177.397 183.137 177.075 183.263 176.711C183.403 176.347 183.473 175.969 183.473 175.577C183.473 175.185 183.403 174.807 183.263 174.443C183.137 174.079 182.941 173.757 182.675 173.477C182.423 173.197 182.115 172.973 181.751 172.805C181.387 172.637 180.974 172.553 180.512 172.553C180.05 172.553 179.637 172.637 179.273 172.805C178.909 172.973 178.594 173.197 178.328 173.477C178.076 173.757 177.88 174.079 177.74 174.443C177.614 174.807 177.551 175.185 177.551 175.577ZM194.138 173.33C193.648 172.644 192.99 172.301 192.164 172.301C191.828 172.301 191.499 172.385 191.177 172.553C190.855 172.721 190.694 172.994 190.694 173.372C190.694 173.68 190.827 173.904 191.093 174.044C191.359 174.184 191.695 174.303 192.101 174.401C192.507 174.499 192.941 174.604 193.403 174.716C193.879 174.814 194.32 174.975 194.726 175.199C195.132 175.409 195.468 175.703 195.734 176.081C196 176.459 196.133 176.977 196.133 177.635C196.133 178.237 196 178.748 195.734 179.168C195.482 179.574 195.146 179.903 194.726 180.155C194.32 180.407 193.858 180.589 193.34 180.701C192.822 180.813 192.304 180.869 191.786 180.869C191.002 180.869 190.281 180.757 189.623 180.533C188.965 180.309 188.377 179.903 187.859 179.315L189.539 177.74C189.861 178.104 190.204 178.405 190.568 178.643C190.946 178.867 191.401 178.979 191.933 178.979C192.115 178.979 192.304 178.958 192.5 178.916C192.696 178.874 192.878 178.804 193.046 178.706C193.214 178.608 193.347 178.489 193.445 178.349C193.557 178.195 193.613 178.02 193.613 177.824C193.613 177.474 193.48 177.215 193.214 177.047C192.948 176.879 192.612 176.746 192.206 176.648C191.8 176.536 191.359 176.438 190.883 176.354C190.421 176.256 189.987 176.109 189.581 175.913C189.175 175.703 188.839 175.416 188.573 175.052C188.307 174.688 188.174 174.184 188.174 173.54C188.174 172.98 188.286 172.497 188.51 172.091C188.748 171.671 189.056 171.328 189.434 171.062C189.812 170.796 190.246 170.6 190.736 170.474C191.226 170.348 191.723 170.285 192.227 170.285C192.899 170.285 193.564 170.404 194.222 170.642C194.88 170.866 195.412 171.258 195.818 171.818L194.138 173.33ZM202.942 170.537H205.714L208.528 177.53H208.57L211.09 170.537H213.715L208.948 182.78C208.766 183.256 208.563 183.669 208.339 184.019C208.129 184.383 207.877 184.684 207.583 184.922C207.289 185.174 206.939 185.356 206.533 185.468C206.141 185.594 205.665 185.657 205.105 185.657C204.447 185.657 203.803 185.573 203.173 185.405L203.488 183.137C203.684 183.207 203.887 183.263 204.097 183.305C204.321 183.361 204.545 183.389 204.769 183.389C205.077 183.389 205.336 183.361 205.546 183.305C205.756 183.249 205.931 183.158 206.071 183.032C206.225 182.92 206.351 182.766 206.449 182.57C206.547 182.388 206.652 182.164 206.764 181.898L207.247 180.701L202.942 170.537ZM217.213 176.459C217.297 177.215 217.591 177.803 218.095 178.223C218.599 178.643 219.208 178.853 219.922 178.853C220.552 178.853 221.077 178.727 221.497 178.475C221.931 178.209 222.309 177.88 222.631 177.488L224.437 178.853C223.849 179.581 223.191 180.099 222.463 180.407C221.735 180.715 220.972 180.869 220.174 180.869C219.418 180.869 218.704 180.743 218.032 180.491C217.36 180.239 216.779 179.882 216.289 179.42C215.799 178.958 215.407 178.405 215.113 177.761C214.833 177.103 214.693 176.375 214.693 175.577C214.693 174.779 214.833 174.058 215.113 173.414C215.407 172.756 215.799 172.196 216.289 171.734C216.779 171.272 217.36 170.915 218.032 170.663C218.704 170.411 219.418 170.285 220.174 170.285C220.874 170.285 221.511 170.411 222.085 170.663C222.673 170.901 223.17 171.251 223.576 171.713C223.996 172.175 224.318 172.749 224.542 173.435C224.78 174.107 224.899 174.884 224.899 175.766V176.459H217.213ZM222.379 174.569C222.365 173.827 222.134 173.246 221.686 172.826C221.238 172.392 220.615 172.175 219.817 172.175C219.061 172.175 218.459 172.392 218.011 172.826C217.577 173.26 217.311 173.841 217.213 174.569H222.379ZM226.08 172.679V170.537H228.159V167.618H230.679V170.537H233.451V172.679H230.679V177.089C230.679 177.593 230.77 177.992 230.952 178.286C231.148 178.58 231.526 178.727 232.086 178.727C232.31 178.727 232.555 178.706 232.821 178.664C233.087 178.608 233.297 178.524 233.451 178.412V180.533C233.185 180.659 232.856 180.743 232.464 180.785C232.086 180.841 231.75 180.869 231.456 180.869C230.784 180.869 230.231 180.792 229.797 180.638C229.377 180.498 229.041 180.281 228.789 179.987C228.551 179.679 228.383 179.301 228.285 178.853C228.201 178.405 228.159 177.887 228.159 177.299V172.679H226.08Z" fill="white"/>
<path d="M2.86032 211.341H6.85132L4.86232 206.505L2.86032 211.341ZM1.49532 214.617H0.40332L4.40732 205.413H5.31732L9.32132 214.617H8.22932L7.21532 212.199H2.50932L1.49532 214.617ZM11.3044 214.617H10.4464V204.789H11.3044V214.617ZM14.4275 214.617H13.5695V204.789H14.4275V214.617ZM20.3757 208.533L21.7797 213.473H21.8057L23.4307 208.533H24.3147L25.9397 213.473H25.9657L27.3697 208.533H28.3837L26.4597 214.617H25.4977L23.8857 209.625H23.8597L22.2477 214.617H21.2857L19.3617 208.533H20.3757ZM32.9555 211.588C32.7389 211.588 32.4659 211.601 32.1365 211.627C31.8159 211.644 31.5039 211.696 31.2005 211.783C30.9059 211.861 30.6502 211.986 30.4335 212.16C30.2255 212.333 30.1215 212.571 30.1215 212.875C30.1215 213.074 30.1605 213.247 30.2385 213.395C30.3252 213.533 30.4379 213.65 30.5765 213.746C30.7152 213.832 30.8669 213.897 31.0315 213.941C31.2049 213.975 31.3782 213.993 31.5515 213.993C31.8635 213.993 32.1322 213.941 32.3575 213.837C32.5915 213.733 32.7865 213.594 32.9425 213.421C33.0985 213.239 33.2112 213.031 33.2805 212.797C33.3585 212.554 33.3975 212.298 33.3975 212.03V211.588H32.9555ZM33.3975 210.886V210.73C33.3975 209.681 32.8775 209.157 31.8375 209.157C31.1269 209.157 30.5072 209.395 29.9785 209.872L29.4585 209.261C30.0305 208.671 30.8885 208.377 32.0325 208.377C32.3272 208.377 32.6089 208.42 32.8775 208.507C33.1549 208.593 33.3932 208.728 33.5925 208.91C33.7919 209.083 33.9522 209.304 34.0735 209.573C34.1949 209.841 34.2555 210.162 34.2555 210.535V213.252C34.2555 213.486 34.2642 213.733 34.2815 213.993C34.3075 214.244 34.3335 214.452 34.3595 214.617H33.5275C33.5015 214.469 33.4799 214.309 33.4625 214.136C33.4539 213.962 33.4495 213.793 33.4495 213.629H33.4235C33.1722 214.036 32.8732 214.331 32.5265 214.513C32.1885 214.686 31.7725 214.773 31.2785 214.773C31.0099 214.773 30.7499 214.734 30.4985 214.656C30.2472 214.586 30.0219 214.478 29.8225 214.331C29.6319 214.175 29.4759 213.988 29.3545 213.772C29.2419 213.546 29.1855 213.286 29.1855 212.992C29.1855 212.498 29.3112 212.112 29.5625 211.835C29.8225 211.549 30.1432 211.336 30.5245 211.198C30.9145 211.059 31.3262 210.972 31.7595 210.938C32.2015 210.903 32.6045 210.886 32.9685 210.886H33.3975ZM39.3847 209.313H37.6297V212.901C37.6297 213.126 37.6514 213.312 37.6947 213.46C37.7381 213.598 37.7987 213.707 37.8767 213.785C37.9547 213.863 38.0457 213.919 38.1497 213.954C38.2624 213.98 38.3837 213.993 38.5137 213.993C38.6611 213.993 38.8127 213.971 38.9687 213.928C39.1247 213.884 39.2677 213.828 39.3977 213.759L39.4367 214.552C39.1161 214.699 38.7304 214.773 38.2797 214.773C38.1151 214.773 37.9417 214.751 37.7597 214.708C37.5864 214.664 37.4261 214.582 37.2787 214.461C37.1314 214.339 37.0101 214.175 36.9147 213.967C36.8194 213.759 36.7717 213.486 36.7717 213.148V209.313H35.4847V208.533H36.7717V206.817H37.6297V208.533H39.3847V209.313ZM44.9881 209.963C44.8408 209.737 44.6328 209.547 44.3641 209.391C44.1041 209.235 43.8051 209.157 43.4671 209.157C43.1118 209.148 42.7911 209.204 42.5051 209.326C42.2278 209.447 41.9895 209.616 41.7901 209.833C41.5908 210.049 41.4391 210.309 41.3351 210.613C41.2311 210.907 41.1791 211.228 41.1791 211.575C41.1791 211.921 41.2311 212.246 41.3351 212.55C41.4391 212.844 41.5908 213.1 41.7901 213.317C41.9895 213.533 42.2278 213.702 42.5051 213.824C42.7911 213.945 43.1118 214.001 43.4671 213.993C43.8051 213.993 44.1041 213.915 44.3641 213.759C44.6328 213.603 44.8408 213.412 44.9881 213.187L45.6901 213.72C45.3868 214.075 45.0445 214.339 44.6631 214.513C44.2818 214.677 43.8831 214.764 43.4671 214.773C42.9731 214.781 42.5268 214.708 42.1281 214.552C41.7295 214.387 41.3871 214.162 41.1011 213.876C40.8238 213.59 40.6115 213.252 40.4641 212.862C40.3168 212.463 40.2431 212.034 40.2431 211.575C40.2431 211.115 40.3168 210.691 40.4641 210.301C40.6115 209.902 40.8238 209.56 41.1011 209.274C41.3871 208.988 41.7295 208.767 42.1281 208.611C42.5268 208.446 42.9731 208.368 43.4671 208.377C43.8831 208.385 44.2818 208.476 44.6631 208.65C45.0445 208.814 45.3868 209.074 45.6901 209.43L44.9881 209.963ZM46.8266 204.789H47.6846V209.508H47.7106C47.806 209.343 47.9273 209.191 48.0746 209.053C48.222 208.914 48.3866 208.797 48.5686 208.702C48.7506 208.598 48.9413 208.52 49.1406 208.468C49.3486 208.407 49.5523 208.377 49.7516 208.377C50.5316 208.377 51.108 208.585 51.4806 209.001C51.8533 209.408 52.0396 209.993 52.0396 210.756V214.617H51.1816V211.25C51.1816 210.574 51.0646 210.058 50.8306 209.703C50.5966 209.339 50.1633 209.157 49.5306 209.157C49.4873 209.157 49.366 209.174 49.1666 209.209C48.9673 209.243 48.755 209.339 48.5296 209.495C48.313 209.651 48.118 209.885 47.9446 210.197C47.7713 210.509 47.6846 210.942 47.6846 211.497V214.617H46.8266V204.789ZM55.2983 206.193C55.2983 206.375 55.2333 206.526 55.1033 206.648C54.9733 206.76 54.8303 206.817 54.6743 206.817C54.5183 206.817 54.3753 206.76 54.2453 206.648C54.1153 206.526 54.0503 206.375 54.0503 206.193C54.0503 206.011 54.1153 205.863 54.2453 205.751C54.3753 205.629 54.5183 205.569 54.6743 205.569C54.8303 205.569 54.9733 205.629 55.1033 205.751C55.2333 205.863 55.2983 206.011 55.2983 206.193ZM55.1033 214.617H54.2453V208.533H55.1033V214.617ZM57.9923 208.533C58.0096 208.697 58.0183 208.862 58.0183 209.027C58.027 209.183 58.0313 209.343 58.0313 209.508H58.0573C58.1526 209.343 58.274 209.191 58.4213 209.053C58.5686 208.914 58.7333 208.797 58.9153 208.702C59.0973 208.598 59.288 208.52 59.4873 208.468C59.6953 208.407 59.899 208.377 60.0983 208.377C60.8783 208.377 61.4546 208.585 61.8273 209.001C62.2 209.408 62.3863 209.993 62.3863 210.756V214.617H61.5283V211.25C61.5283 210.574 61.4113 210.058 61.1773 209.703C60.9433 209.339 60.51 209.157 59.8773 209.157C59.834 209.157 59.7126 209.174 59.5133 209.209C59.314 209.243 59.1016 209.339 58.8763 209.495C58.6596 209.651 58.4646 209.885 58.2913 210.197C58.118 210.509 58.0313 210.942 58.0313 211.497V214.617H57.1733V209.872C57.1733 209.707 57.1646 209.499 57.1473 209.248C57.1386 208.996 57.1256 208.758 57.1083 208.533H57.9923ZM65.0209 211.497C65.0209 211.817 65.0773 212.121 65.1899 212.407C65.3113 212.684 65.4716 212.931 65.6709 213.148C65.8789 213.356 66.1173 213.525 66.3859 213.655C66.6633 213.776 66.9623 213.837 67.2829 213.837C67.5949 213.837 67.8896 213.78 68.1669 213.668C68.4529 213.555 68.7043 213.399 68.9209 213.2C69.1376 212.992 69.3023 212.745 69.4149 212.459C69.5363 212.173 69.5926 211.852 69.5839 211.497C69.5839 211.176 69.5319 210.877 69.4279 210.6C69.3239 210.314 69.1723 210.067 68.9729 209.859C68.7736 209.642 68.5309 209.473 68.2449 209.352C67.9589 209.222 67.6383 209.157 67.2829 209.157C66.9623 209.157 66.6633 209.222 66.3859 209.352C66.1173 209.473 65.8789 209.642 65.6709 209.859C65.4716 210.067 65.3113 210.314 65.1899 210.6C65.0773 210.877 65.0209 211.176 65.0209 211.497ZM64.8649 215.839C65.1163 216.177 65.4413 216.445 65.8399 216.645C66.2473 216.853 66.6979 216.957 67.1919 216.957C67.6253 216.957 67.9936 216.892 68.2969 216.762C68.6003 216.64 68.8429 216.471 69.0249 216.255C69.2156 216.038 69.3499 215.782 69.4279 215.488C69.5146 215.202 69.5579 214.894 69.5579 214.565V213.473H69.5319C69.2546 213.889 68.9166 214.183 68.5179 214.357C68.1193 214.53 67.6989 214.617 67.2569 214.617C66.8149 214.617 66.3989 214.539 66.0089 214.383C65.6276 214.227 65.2939 214.014 65.0079 213.746C64.7219 213.468 64.4966 213.139 64.3319 212.758C64.1673 212.376 64.0849 211.965 64.0849 211.523C64.0849 211.081 64.1629 210.669 64.3189 210.288C64.4749 209.906 64.6873 209.573 64.9559 209.287C65.2333 209.001 65.5583 208.78 65.9309 208.624C66.3123 208.459 66.7283 208.377 67.1789 208.377C67.3609 208.377 67.5516 208.394 67.7509 208.429C67.9589 208.463 68.1626 208.524 68.3619 208.611C68.5699 208.697 68.7736 208.819 68.9729 208.975C69.1723 209.122 69.3586 209.313 69.5319 209.547H69.5579V208.533H70.4159V214.565C70.4159 214.894 70.3726 215.245 70.2859 215.618C70.2079 215.99 70.0476 216.333 69.8049 216.645C69.5709 216.957 69.2416 217.217 68.8169 217.425C68.3923 217.633 67.8376 217.737 67.1529 217.737C66.5463 217.737 66.0046 217.637 65.5279 217.438C65.0513 217.238 64.6179 216.931 64.2279 216.515L64.8649 215.839ZM79.4204 211.588C79.2037 211.588 78.9307 211.601 78.6014 211.627C78.2807 211.644 77.9687 211.696 77.6654 211.783C77.3707 211.861 77.115 211.986 76.8984 212.16C76.6904 212.333 76.5864 212.571 76.5864 212.875C76.5864 213.074 76.6254 213.247 76.7034 213.395C76.79 213.533 76.9027 213.65 77.0414 213.746C77.18 213.832 77.3317 213.897 77.4964 213.941C77.6697 213.975 77.843 213.993 78.0164 213.993C78.3284 213.993 78.597 213.941 78.8224 213.837C79.0564 213.733 79.2514 213.594 79.4074 213.421C79.5634 213.239 79.676 213.031 79.7454 212.797C79.8234 212.554 79.8624 212.298 79.8624 212.03V211.588H79.4204ZM79.8624 210.886V210.73C79.8624 209.681 79.3424 209.157 78.3024 209.157C77.5917 209.157 76.972 209.395 76.4434 209.872L75.9234 209.261C76.4954 208.671 77.3534 208.377 78.4974 208.377C78.792 208.377 79.0737 208.42 79.3424 208.507C79.6197 208.593 79.858 208.728 80.0574 208.91C80.2567 209.083 80.417 209.304 80.5384 209.573C80.6597 209.841 80.7204 210.162 80.7204 210.535V213.252C80.7204 213.486 80.729 213.733 80.7464 213.993C80.7724 214.244 80.7984 214.452 80.8244 214.617H79.9924C79.9664 214.469 79.9447 214.309 79.9274 214.136C79.9187 213.962 79.9144 213.793 79.9144 213.629H79.8884C79.637 214.036 79.338 214.331 78.9914 214.513C78.6534 214.686 78.2374 214.773 77.7434 214.773C77.4747 214.773 77.2147 214.734 76.9634 214.656C76.712 214.586 76.4867 214.478 76.2874 214.331C76.0967 214.175 75.9407 213.988 75.8194 213.772C75.7067 213.546 75.6504 213.286 75.6504 212.992C75.6504 212.498 75.776 212.112 76.0274 211.835C76.2874 211.549 76.608 211.336 76.9894 211.198C77.3794 211.059 77.791 210.972 78.2244 210.938C78.6664 210.903 79.0694 210.886 79.4334 210.886H79.8624ZM87.1366 209.963C86.9892 209.737 86.7812 209.547 86.5126 209.391C86.2526 209.235 85.9536 209.157 85.6156 209.157C85.2602 209.148 84.9396 209.204 84.6536 209.326C84.3762 209.447 84.1379 209.616 83.9386 209.833C83.7392 210.049 83.5876 210.309 83.4836 210.613C83.3796 210.907 83.3276 211.228 83.3276 211.575C83.3276 211.921 83.3796 212.246 83.4836 212.55C83.5876 212.844 83.7392 213.1 83.9386 213.317C84.1379 213.533 84.3762 213.702 84.6536 213.824C84.9396 213.945 85.2602 214.001 85.6156 213.993C85.9536 213.993 86.2526 213.915 86.5126 213.759C86.7812 213.603 86.9892 213.412 87.1366 213.187L87.8386 213.72C87.5352 214.075 87.1929 214.339 86.8116 214.513C86.4302 214.677 86.0316 214.764 85.6156 214.773C85.1216 214.781 84.6752 214.708 84.2766 214.552C83.8779 214.387 83.5356 214.162 83.2496 213.876C82.9722 213.59 82.7599 213.252 82.6126 212.862C82.4652 212.463 82.3916 212.034 82.3916 211.575C82.3916 211.115 82.4652 210.691 82.6126 210.301C82.7599 209.902 82.9722 209.56 83.2496 209.274C83.5356 208.988 83.8779 208.767 84.2766 208.611C84.6752 208.446 85.1216 208.368 85.6156 208.377C86.0316 208.385 86.4302 208.476 86.8116 208.65C87.1929 208.814 87.5352 209.074 87.8386 209.43L87.1366 209.963ZM92.1211 209.313H90.3661V212.901C90.3661 213.126 90.3877 213.312 90.4311 213.46C90.4744 213.598 90.5351 213.707 90.6131 213.785C90.6911 213.863 90.7821 213.919 90.8861 213.954C90.9987 213.98 91.1201 213.993 91.2501 213.993C91.3974 213.993 91.5491 213.971 91.7051 213.928C91.8611 213.884 92.0041 213.828 92.1341 213.759L92.1731 214.552C91.8524 214.699 91.4667 214.773 91.0161 214.773C90.8514 214.773 90.6781 214.751 90.4961 214.708C90.3227 214.664 90.1624 214.582 90.0151 214.461C89.8677 214.339 89.7464 214.175 89.6511 213.967C89.5557 213.759 89.5081 213.486 89.5081 213.148V209.313H88.2211V208.533H89.5081V206.817H90.3661V208.533H92.1211V209.313ZM94.5395 206.193C94.5395 206.375 94.4745 206.526 94.3445 206.648C94.2145 206.76 94.0715 206.817 93.9155 206.817C93.7595 206.817 93.6165 206.76 93.4865 206.648C93.3565 206.526 93.2915 206.375 93.2915 206.193C93.2915 206.011 93.3565 205.863 93.4865 205.751C93.6165 205.629 93.7595 205.569 93.9155 205.569C94.0715 205.569 94.2145 205.629 94.3445 205.751C94.4745 205.863 94.5395 206.011 94.5395 206.193ZM94.3445 214.617H93.4865V208.533H94.3445V214.617ZM99.0925 214.617H98.1305L95.6605 208.533H96.6875L98.6245 213.655H98.6505L100.588 208.533H101.563L99.0925 214.617ZM103.934 206.193C103.934 206.375 103.869 206.526 103.739 206.648C103.609 206.76 103.466 206.817 103.31 206.817C103.154 206.817 103.011 206.76 102.881 206.648C102.751 206.526 102.686 206.375 102.686 206.193C102.686 206.011 102.751 205.863 102.881 205.751C103.011 205.629 103.154 205.569 103.31 205.569C103.466 205.569 103.609 205.629 103.739 205.751C103.869 205.863 103.934 206.011 103.934 206.193ZM103.739 214.617H102.881V208.533H103.739V214.617ZM108.955 209.313H107.2V212.901C107.2 213.126 107.222 213.312 107.265 213.46C107.308 213.598 107.369 213.707 107.447 213.785C107.525 213.863 107.616 213.919 107.72 213.954C107.833 213.98 107.954 213.993 108.084 213.993C108.231 213.993 108.383 213.971 108.539 213.928C108.695 213.884 108.838 213.828 108.968 213.759L109.007 214.552C108.686 214.699 108.301 214.773 107.85 214.773C107.685 214.773 107.512 214.751 107.33 214.708C107.157 214.664 106.996 214.582 106.849 214.461C106.702 214.339 106.58 214.175 106.485 213.967C106.39 213.759 106.342 213.486 106.342 213.148V209.313H105.055V208.533H106.342V206.817H107.2V208.533H108.955V209.313ZM111.373 206.193C111.373 206.375 111.308 206.526 111.178 206.648C111.048 206.76 110.905 206.817 110.749 206.817C110.593 206.817 110.45 206.76 110.32 206.648C110.19 206.526 110.125 206.375 110.125 206.193C110.125 206.011 110.19 205.863 110.32 205.751C110.45 205.629 110.593 205.569 110.749 205.569C110.905 205.569 111.048 205.629 111.178 205.751C111.308 205.863 111.373 206.011 111.373 206.193ZM111.178 214.617H110.32V208.533H111.178V214.617ZM117.981 211.107C117.981 210.526 117.807 210.058 117.461 209.703C117.114 209.339 116.629 209.157 116.005 209.157C115.727 209.157 115.459 209.213 115.199 209.326C114.939 209.43 114.709 209.573 114.51 209.755C114.319 209.937 114.163 210.145 114.042 210.379C113.929 210.613 113.873 210.855 113.873 211.107H117.981ZM113.847 211.809C113.873 212.112 113.946 212.398 114.068 212.667C114.189 212.935 114.349 213.169 114.549 213.369C114.748 213.559 114.978 213.711 115.238 213.824C115.498 213.936 115.779 213.993 116.083 213.993C116.542 213.993 116.936 213.889 117.266 213.681C117.604 213.464 117.859 213.217 118.033 212.94L118.696 213.486C118.332 213.945 117.929 214.274 117.487 214.474C117.053 214.673 116.585 214.773 116.083 214.773C115.632 214.773 115.212 214.695 114.822 214.539C114.44 214.374 114.111 214.149 113.834 213.863C113.556 213.577 113.335 213.239 113.17 212.849C113.015 212.459 112.937 212.034 112.937 211.575C112.937 211.115 113.015 210.691 113.17 210.301C113.327 209.911 113.543 209.573 113.821 209.287C114.098 209.001 114.423 208.78 114.796 208.624C115.168 208.459 115.571 208.377 116.005 208.377C116.464 208.377 116.876 208.459 117.24 208.624C117.604 208.788 117.907 209.009 118.15 209.287C118.401 209.555 118.592 209.876 118.722 210.249C118.852 210.613 118.917 211.003 118.917 211.419V211.809H113.847ZM123.696 209.976C123.566 209.724 123.393 209.525 123.176 209.378C122.959 209.23 122.695 209.157 122.383 209.157C122.236 209.157 122.084 209.174 121.928 209.209C121.781 209.243 121.646 209.3 121.525 209.378C121.404 209.447 121.304 209.538 121.226 209.651C121.157 209.763 121.122 209.902 121.122 210.067C121.122 210.353 121.222 210.561 121.421 210.691C121.62 210.821 121.919 210.933 122.318 211.029L123.189 211.237C123.614 211.332 123.965 211.527 124.242 211.822C124.528 212.108 124.671 212.467 124.671 212.901C124.671 213.23 124.602 213.516 124.463 213.759C124.333 213.993 124.155 214.188 123.93 214.344C123.713 214.491 123.462 214.599 123.176 214.669C122.89 214.738 122.6 214.773 122.305 214.773C121.837 214.773 121.399 214.686 120.992 214.513C120.593 214.331 120.251 214.023 119.965 213.59L120.706 213.083C120.879 213.36 121.096 213.581 121.356 213.746C121.625 213.91 121.941 213.993 122.305 213.993C122.478 213.993 122.652 213.975 122.825 213.941C122.998 213.897 123.15 213.837 123.28 213.759C123.419 213.672 123.527 213.564 123.605 213.434C123.692 213.304 123.735 213.152 123.735 212.979C123.735 212.675 123.622 212.459 123.397 212.329C123.172 212.19 122.899 212.082 122.578 212.004L121.746 211.809C121.642 211.783 121.499 211.739 121.317 211.679C121.144 211.618 120.97 211.527 120.797 211.406C120.632 211.284 120.489 211.128 120.368 210.938C120.247 210.738 120.186 210.496 120.186 210.21C120.186 209.898 120.247 209.625 120.368 209.391C120.498 209.157 120.667 208.966 120.875 208.819C121.092 208.671 121.334 208.563 121.603 208.494C121.872 208.416 122.149 208.377 122.435 208.377C122.86 208.377 123.254 208.459 123.618 208.624C123.982 208.788 124.264 209.07 124.463 209.469L123.696 209.976ZM133.083 211.588C132.867 211.588 132.594 211.601 132.264 211.627C131.944 211.644 131.632 211.696 131.328 211.783C131.034 211.861 130.778 211.986 130.561 212.16C130.353 212.333 130.249 212.571 130.249 212.875C130.249 213.074 130.288 213.247 130.366 213.395C130.453 213.533 130.566 213.65 130.704 213.746C130.843 213.832 130.995 213.897 131.159 213.941C131.333 213.975 131.506 213.993 131.679 213.993C131.991 213.993 132.26 213.941 132.485 213.837C132.719 213.733 132.914 213.594 133.07 213.421C133.226 213.239 133.339 213.031 133.408 212.797C133.486 212.554 133.525 212.298 133.525 212.03V211.588H133.083ZM133.525 210.886V210.73C133.525 209.681 133.005 209.157 131.965 209.157C131.255 209.157 130.635 209.395 130.106 209.872L129.586 209.261C130.158 208.671 131.016 208.377 132.16 208.377C132.455 208.377 132.737 208.42 133.005 208.507C133.283 208.593 133.521 208.728 133.72 208.91C133.92 209.083 134.08 209.304 134.201 209.573C134.323 209.841 134.383 210.162 134.383 210.535V213.252C134.383 213.486 134.392 213.733 134.409 213.993C134.435 214.244 134.461 214.452 134.487 214.617H133.655C133.629 214.469 133.608 214.309 133.59 214.136C133.582 213.962 133.577 213.793 133.577 213.629H133.551C133.3 214.036 133.001 214.331 132.654 214.513C132.316 214.686 131.9 214.773 131.406 214.773C131.138 214.773 130.878 214.734 130.626 214.656C130.375 214.586 130.15 214.478 129.95 214.331C129.76 214.175 129.604 213.988 129.482 213.772C129.37 213.546 129.313 213.286 129.313 212.992C129.313 212.498 129.439 212.112 129.69 211.835C129.95 211.549 130.271 211.336 130.652 211.198C131.042 211.059 131.454 210.972 131.887 210.938C132.329 210.903 132.732 210.886 133.096 210.886H133.525ZM136.458 210.431C136.458 210.162 136.449 209.889 136.432 209.612C136.423 209.334 136.414 208.975 136.406 208.533H137.251V209.664H137.277C137.337 209.499 137.424 209.343 137.537 209.196C137.649 209.04 137.784 208.901 137.94 208.78C138.104 208.658 138.291 208.563 138.499 208.494C138.715 208.416 138.958 208.377 139.227 208.377C139.469 208.377 139.682 208.403 139.864 208.455L139.695 209.3C139.582 209.256 139.417 209.235 139.201 209.235C138.871 209.235 138.59 209.3 138.356 209.43C138.122 209.551 137.927 209.711 137.771 209.911C137.615 210.101 137.498 210.309 137.42 210.535C137.35 210.76 137.316 210.977 137.316 211.185V214.617H136.458V210.431ZM145.187 211.107C145.187 210.526 145.013 210.058 144.667 209.703C144.32 209.339 143.835 209.157 143.211 209.157C142.933 209.157 142.665 209.213 142.405 209.326C142.145 209.43 141.915 209.573 141.716 209.755C141.525 209.937 141.369 210.145 141.248 210.379C141.135 210.613 141.079 210.855 141.079 211.107H145.187ZM141.053 211.809C141.079 212.112 141.152 212.398 141.274 212.667C141.395 212.935 141.555 213.169 141.755 213.369C141.954 213.559 142.184 213.711 142.444 213.824C142.704 213.936 142.985 213.993 143.289 213.993C143.748 213.993 144.142 213.889 144.472 213.681C144.81 213.464 145.065 213.217 145.239 212.94L145.902 213.486C145.538 213.945 145.135 214.274 144.693 214.474C144.259 214.673 143.791 214.773 143.289 214.773C142.838 214.773 142.418 214.695 142.028 214.539C141.646 214.374 141.317 214.149 141.04 213.863C140.762 213.577 140.541 213.239 140.377 212.849C140.221 212.459 140.143 212.034 140.143 211.575C140.143 211.115 140.221 210.691 140.377 210.301C140.533 209.911 140.749 209.573 141.027 209.287C141.304 209.001 141.629 208.78 142.002 208.624C142.374 208.459 142.777 208.377 143.211 208.377C143.67 208.377 144.082 208.459 144.446 208.624C144.81 208.788 145.113 209.009 145.356 209.287C145.607 209.555 145.798 209.876 145.928 210.249C146.058 210.613 146.123 211.003 146.123 211.419V211.809H141.053ZM151.816 211.575C151.816 211.913 151.868 212.229 151.972 212.524C152.085 212.818 152.241 213.074 152.44 213.291C152.64 213.507 152.878 213.681 153.155 213.811C153.441 213.932 153.762 213.993 154.117 213.993C154.464 213.993 154.785 213.932 155.079 213.811C155.383 213.681 155.643 213.507 155.859 213.291C156.076 213.074 156.245 212.818 156.366 212.524C156.488 212.229 156.548 211.913 156.548 211.575C156.548 211.237 156.488 210.92 156.366 210.626C156.245 210.331 156.076 210.075 155.859 209.859C155.643 209.642 155.383 209.473 155.079 209.352C154.785 209.222 154.464 209.157 154.117 209.157C153.762 209.157 153.441 209.222 153.155 209.352C152.878 209.473 152.64 209.642 152.44 209.859C152.241 210.075 152.085 210.331 151.972 210.626C151.868 210.92 151.816 211.237 151.816 211.575ZM157.367 214.617H156.509V213.603H156.483C156.345 213.811 156.18 213.988 155.989 214.136C155.799 214.283 155.599 214.404 155.391 214.5C155.183 214.595 154.967 214.664 154.741 214.708C154.525 214.751 154.317 214.773 154.117 214.773C153.641 214.773 153.203 214.695 152.804 214.539C152.414 214.374 152.076 214.149 151.79 213.863C151.504 213.577 151.279 213.239 151.114 212.849C150.958 212.459 150.88 212.034 150.88 211.575C150.88 211.115 150.958 210.691 151.114 210.301C151.279 209.911 151.504 209.573 151.79 209.287C152.076 209.001 152.414 208.78 152.804 208.624C153.203 208.459 153.641 208.377 154.117 208.377C154.317 208.377 154.525 208.398 154.741 208.442C154.967 208.485 155.183 208.554 155.391 208.65C155.599 208.745 155.799 208.866 155.989 209.014C156.18 209.161 156.345 209.339 156.483 209.547H156.509V204.789H157.367V214.617ZM160.492 206.193C160.492 206.375 160.427 206.526 160.297 206.648C160.167 206.76 160.024 206.817 159.868 206.817C159.712 206.817 159.569 206.76 159.439 206.648C159.309 206.526 159.244 206.375 159.244 206.193C159.244 206.011 159.309 205.863 159.439 205.751C159.569 205.629 159.712 205.569 159.868 205.569C160.024 205.569 160.167 205.629 160.297 205.751C160.427 205.863 160.492 206.011 160.492 206.193ZM160.297 214.617H159.439V208.533H160.297V214.617ZM165.591 209.976C165.461 209.724 165.287 209.525 165.071 209.378C164.854 209.23 164.59 209.157 164.278 209.157C164.13 209.157 163.979 209.174 163.823 209.209C163.675 209.243 163.541 209.3 163.42 209.378C163.298 209.447 163.199 209.538 163.121 209.651C163.051 209.763 163.017 209.902 163.017 210.067C163.017 210.353 163.116 210.561 163.316 210.691C163.515 210.821 163.814 210.933 164.213 211.029L165.084 211.237C165.508 211.332 165.859 211.527 166.137 211.822C166.423 212.108 166.566 212.467 166.566 212.901C166.566 213.23 166.496 213.516 166.358 213.759C166.228 213.993 166.05 214.188 165.825 214.344C165.608 214.491 165.357 214.599 165.071 214.669C164.785 214.738 164.494 214.773 164.2 214.773C163.732 214.773 163.294 214.686 162.887 214.513C162.488 214.331 162.146 214.023 161.86 213.59L162.601 213.083C162.774 213.36 162.991 213.581 163.251 213.746C163.519 213.91 163.836 213.993 164.2 213.993C164.373 213.993 164.546 213.975 164.72 213.941C164.893 213.897 165.045 213.837 165.175 213.759C165.313 213.672 165.422 213.564 165.5 213.434C165.586 213.304 165.63 213.152 165.63 212.979C165.63 212.675 165.517 212.459 165.292 212.329C165.066 212.19 164.793 212.082 164.473 212.004L163.641 211.809C163.537 211.783 163.394 211.739 163.212 211.679C163.038 211.618 162.865 211.527 162.692 211.406C162.527 211.284 162.384 211.128 162.263 210.938C162.141 210.738 162.081 210.496 162.081 210.21C162.081 209.898 162.141 209.625 162.263 209.391C162.393 209.157 162.562 208.966 162.77 208.819C162.986 208.671 163.229 208.563 163.498 208.494C163.766 208.416 164.044 208.377 164.33 208.377C164.754 208.377 165.149 208.459 165.513 208.624C165.877 208.788 166.158 209.07 166.358 209.469L165.591 209.976ZM173.453 211.575C173.453 211.237 173.396 210.92 173.284 210.626C173.18 210.331 173.028 210.075 172.829 209.859C172.629 209.642 172.387 209.473 172.101 209.352C171.823 209.222 171.507 209.157 171.152 209.157C170.796 209.157 170.471 209.222 170.177 209.352C169.882 209.473 169.626 209.642 169.41 209.859C169.193 210.075 169.024 210.331 168.903 210.626C168.781 210.92 168.721 211.237 168.721 211.575C168.721 211.913 168.781 212.229 168.903 212.524C169.024 212.818 169.193 213.074 169.41 213.291C169.626 213.507 169.882 213.681 170.177 213.811C170.471 213.932 170.796 213.993 171.152 213.993C171.507 213.993 171.823 213.932 172.101 213.811C172.387 213.681 172.629 213.507 172.829 213.291C173.028 213.074 173.18 212.818 173.284 212.524C173.396 212.229 173.453 211.913 173.453 211.575ZM167.902 208.533H168.76V209.547H168.786C168.924 209.339 169.089 209.161 169.28 209.014C169.47 208.866 169.67 208.745 169.878 208.65C170.086 208.554 170.298 208.485 170.515 208.442C170.74 208.398 170.952 208.377 171.152 208.377C171.628 208.377 172.062 208.459 172.452 208.624C172.85 208.78 173.193 209.001 173.479 209.287C173.765 209.573 173.986 209.911 174.142 210.301C174.306 210.691 174.389 211.115 174.389 211.575C174.389 212.034 174.306 212.459 174.142 212.849C173.986 213.239 173.765 213.577 173.479 213.863C173.193 214.149 172.85 214.374 172.452 214.539C172.062 214.695 171.628 214.773 171.152 214.773C170.952 214.773 170.74 214.751 170.515 214.708C170.298 214.664 170.086 214.595 169.878 214.5C169.67 214.404 169.47 214.283 169.28 214.136C169.089 213.988 168.924 213.811 168.786 213.603H168.76V218.361H167.902V208.533ZM176.902 214.617H176.044V204.789H176.902V214.617ZM182.43 211.588C182.213 211.588 181.94 211.601 181.611 211.627C181.29 211.644 180.978 211.696 180.675 211.783C180.38 211.861 180.125 211.986 179.908 212.16C179.7 212.333 179.596 212.571 179.596 212.875C179.596 213.074 179.635 213.247 179.713 213.395C179.8 213.533 179.912 213.65 180.051 213.746C180.19 213.832 180.341 213.897 180.506 213.941C180.679 213.975 180.853 213.993 181.026 213.993C181.338 213.993 181.607 213.941 181.832 213.837C182.066 213.733 182.261 213.594 182.417 213.421C182.573 213.239 182.686 213.031 182.755 212.797C182.833 212.554 182.872 212.298 182.872 212.03V211.588H182.43ZM182.872 210.886V210.73C182.872 209.681 182.352 209.157 181.312 209.157C180.601 209.157 179.982 209.395 179.453 209.872L178.933 209.261C179.505 208.671 180.363 208.377 181.507 208.377C181.802 208.377 182.083 208.42 182.352 208.507C182.629 208.593 182.868 208.728 183.067 208.91C183.266 209.083 183.427 209.304 183.548 209.573C183.669 209.841 183.73 210.162 183.73 210.535V213.252C183.73 213.486 183.739 213.733 183.756 213.993C183.782 214.244 183.808 214.452 183.834 214.617H183.002C182.976 214.469 182.954 214.309 182.937 214.136C182.928 213.962 182.924 213.793 182.924 213.629H182.898C182.647 214.036 182.348 214.331 182.001 214.513C181.663 214.686 181.247 214.773 180.753 214.773C180.484 214.773 180.224 214.734 179.973 214.656C179.722 214.586 179.496 214.478 179.297 214.331C179.106 214.175 178.95 213.988 178.829 213.772C178.716 213.546 178.66 213.286 178.66 212.992C178.66 212.498 178.786 212.112 179.037 211.835C179.297 211.549 179.618 211.336 179.999 211.198C180.389 211.059 180.801 210.972 181.234 210.938C181.676 210.903 182.079 210.886 182.443 210.886H182.872ZM187.975 213.564L189.834 208.533H190.874L187.832 216.203C187.65 216.671 187.416 217.043 187.13 217.321C186.853 217.598 186.45 217.737 185.921 217.737C185.791 217.737 185.657 217.732 185.518 217.724C185.388 217.715 185.258 217.689 185.128 217.646L185.219 216.814C185.401 216.909 185.618 216.957 185.869 216.957C186.173 216.957 186.411 216.861 186.584 216.671C186.758 216.48 186.909 216.211 187.039 215.865L187.481 214.695L184.985 208.533H186.064L187.975 213.564ZM196.717 211.107C196.717 210.526 196.543 210.058 196.197 209.703C195.85 209.339 195.365 209.157 194.741 209.157C194.463 209.157 194.195 209.213 193.935 209.326C193.675 209.43 193.445 209.573 193.246 209.755C193.055 209.937 192.899 210.145 192.778 210.379C192.665 210.613 192.609 210.855 192.609 211.107H196.717ZM192.583 211.809C192.609 212.112 192.682 212.398 192.804 212.667C192.925 212.935 193.085 213.169 193.285 213.369C193.484 213.559 193.714 213.711 193.974 213.824C194.234 213.936 194.515 213.993 194.819 213.993C195.278 213.993 195.672 213.889 196.002 213.681C196.34 213.464 196.595 213.217 196.769 212.94L197.432 213.486C197.068 213.945 196.665 214.274 196.223 214.474C195.789 214.673 195.321 214.773 194.819 214.773C194.368 214.773 193.948 214.695 193.558 214.539C193.176 214.374 192.847 214.149 192.57 213.863C192.292 213.577 192.071 213.239 191.907 212.849C191.751 212.459 191.673 212.034 191.673 211.575C191.673 211.115 191.751 210.691 191.907 210.301C192.063 209.911 192.279 209.573 192.557 209.287C192.834 209.001 193.159 208.78 193.532 208.624C193.904 208.459 194.307 208.377 194.741 208.377C195.2 208.377 195.612 208.459 195.976 208.624C196.34 208.788 196.643 209.009 196.886 209.287C197.137 209.555 197.328 209.876 197.458 210.249C197.588 210.613 197.653 211.003 197.653 211.419V211.809H192.583ZM199.728 211.575C199.728 211.913 199.78 212.229 199.884 212.524C199.997 212.818 200.153 213.074 200.352 213.291C200.552 213.507 200.79 213.681 201.067 213.811C201.353 213.932 201.674 213.993 202.029 213.993C202.376 213.993 202.697 213.932 202.991 213.811C203.295 213.681 203.555 213.507 203.771 213.291C203.988 213.074 204.157 212.818 204.278 212.524C204.4 212.229 204.46 211.913 204.46 211.575C204.46 211.237 204.4 210.92 204.278 210.626C204.157 210.331 203.988 210.075 203.771 209.859C203.555 209.642 203.295 209.473 202.991 209.352C202.697 209.222 202.376 209.157 202.029 209.157C201.674 209.157 201.353 209.222 201.067 209.352C200.79 209.473 200.552 209.642 200.352 209.859C200.153 210.075 199.997 210.331 199.884 210.626C199.78 210.92 199.728 211.237 199.728 211.575ZM205.279 214.617H204.421V213.603H204.395C204.257 213.811 204.092 213.988 203.901 214.136C203.711 214.283 203.511 214.404 203.303 214.5C203.095 214.595 202.879 214.664 202.653 214.708C202.437 214.751 202.229 214.773 202.029 214.773C201.553 214.773 201.115 214.695 200.716 214.539C200.326 214.374 199.988 214.149 199.702 213.863C199.416 213.577 199.191 213.239 199.026 212.849C198.87 212.459 198.792 212.034 198.792 211.575C198.792 211.115 198.87 210.691 199.026 210.301C199.191 209.911 199.416 209.573 199.702 209.287C199.988 209.001 200.326 208.78 200.716 208.624C201.115 208.459 201.553 208.377 202.029 208.377C202.229 208.377 202.437 208.398 202.653 208.442C202.879 208.485 203.095 208.554 203.303 208.65C203.511 208.745 203.711 208.866 203.901 209.014C204.092 209.161 204.257 209.339 204.395 209.547H204.421V204.789H205.279V214.617ZM210.774 204.789H211.632V209.508H211.658C211.753 209.343 211.875 209.191 212.022 209.053C212.169 208.914 212.334 208.797 212.516 208.702C212.698 208.598 212.889 208.52 213.088 208.468C213.296 208.407 213.5 208.377 213.699 208.377C214.479 208.377 215.055 208.585 215.428 209.001C215.801 209.408 215.987 209.993 215.987 210.756V214.617H215.129V211.25C215.129 210.574 215.012 210.058 214.778 209.703C214.544 209.339 214.111 209.157 213.478 209.157C213.435 209.157 213.313 209.174 213.114 209.209C212.915 209.243 212.702 209.339 212.477 209.495C212.26 209.651 212.065 209.885 211.892 210.197C211.719 210.509 211.632 210.942 211.632 211.497V214.617H210.774V204.789ZM222.73 211.107C222.73 210.526 222.556 210.058 222.21 209.703C221.863 209.339 221.378 209.157 220.754 209.157C220.476 209.157 220.208 209.213 219.948 209.326C219.688 209.43 219.458 209.573 219.259 209.755C219.068 209.937 218.912 210.145 218.791 210.379C218.678 210.613 218.622 210.855 218.622 211.107H222.73ZM218.596 211.809C218.622 212.112 218.695 212.398 218.817 212.667C218.938 212.935 219.098 213.169 219.298 213.369C219.497 213.559 219.727 213.711 219.987 213.824C220.247 213.936 220.528 213.993 220.832 213.993C221.291 213.993 221.685 213.889 222.015 213.681C222.353 213.464 222.608 213.217 222.782 212.94L223.445 213.486C223.081 213.945 222.678 214.274 222.236 214.474C221.802 214.673 221.334 214.773 220.832 214.773C220.381 214.773 219.961 214.695 219.571 214.539C219.189 214.374 218.86 214.149 218.583 213.863C218.305 213.577 218.084 213.239 217.92 212.849C217.764 212.459 217.686 212.034 217.686 211.575C217.686 211.115 217.764 210.691 217.92 210.301C218.076 209.911 218.292 209.573 218.57 209.287C218.847 209.001 219.172 208.78 219.545 208.624C219.917 208.459 220.32 208.377 220.754 208.377C221.213 208.377 221.625 208.459 221.989 208.624C222.353 208.788 222.656 209.009 222.899 209.287C223.15 209.555 223.341 209.876 223.471 210.249C223.601 210.613 223.666 211.003 223.666 211.419V211.809H218.596ZM225.312 210.431C225.312 210.162 225.303 209.889 225.286 209.612C225.277 209.334 225.269 208.975 225.26 208.533H226.105V209.664H226.131C226.192 209.499 226.278 209.343 226.391 209.196C226.504 209.04 226.638 208.901 226.794 208.78C226.959 208.658 227.145 208.563 227.353 208.494C227.57 208.416 227.812 208.377 228.081 208.377C228.324 208.377 228.536 208.403 228.718 208.455L228.549 209.3C228.436 209.256 228.272 209.235 228.055 209.235C227.726 209.235 227.444 209.3 227.21 209.43C226.976 209.551 226.781 209.711 226.625 209.911C226.469 210.101 226.352 210.309 226.274 210.535C226.205 210.76 226.17 210.977 226.17 211.185V214.617H225.312V210.431ZM234.041 211.107C234.041 210.526 233.868 210.058 233.521 209.703C233.174 209.339 232.689 209.157 232.065 209.157C231.788 209.157 231.519 209.213 231.259 209.326C230.999 209.43 230.769 209.573 230.57 209.755C230.379 209.937 230.223 210.145 230.102 210.379C229.989 210.613 229.933 210.855 229.933 211.107H234.041ZM229.907 211.809C229.933 212.112 230.007 212.398 230.128 212.667C230.249 212.935 230.41 213.169 230.609 213.369C230.808 213.559 231.038 213.711 231.298 213.824C231.558 213.936 231.84 213.993 232.143 213.993C232.602 213.993 232.997 213.889 233.326 213.681C233.664 213.464 233.92 213.217 234.093 212.94L234.756 213.486C234.392 213.945 233.989 214.274 233.547 214.474C233.114 214.673 232.646 214.773 232.143 214.773C231.692 214.773 231.272 214.695 230.882 214.539C230.501 214.374 230.171 214.149 229.894 213.863C229.617 213.577 229.396 213.239 229.231 212.849C229.075 212.459 228.997 212.034 228.997 211.575C228.997 211.115 229.075 210.691 229.231 210.301C229.387 209.911 229.604 209.573 229.881 209.287C230.158 209.001 230.483 208.78 230.856 208.624C231.229 208.459 231.632 208.377 232.065 208.377C232.524 208.377 232.936 208.459 233.3 208.624C233.664 208.788 233.967 209.009 234.21 209.287C234.461 209.555 234.652 209.876 234.782 210.249C234.912 210.613 234.977 211.003 234.977 211.419V211.809H229.907Z" fill="#D4D4D4"/>
</svg>
