<svg width="60" height="40" viewBox="0 0 60 40" fill="none" xmlns="http://www.w3.org/2000/svg">
<path d="M38.3737 14.3223C35.585 14.3223 33.3264 16.5535 33.3264 19.3083C33.3264 22.0632 35.585 24.2944 38.3737 24.2944C41.1624 24.2944 43.4211 22.0632 43.4211 19.3083C43.4211 16.5535 41.1509 14.3223 38.3737 14.3223ZM38.3737 21.5964C37.0946 21.5964 36.0575 20.5719 36.0575 19.3083C36.0575 18.0447 37.0946 17.0202 38.3737 17.0202C39.6528 17.0202 40.69 18.0447 40.69 19.3083C40.69 19.9117 40.448 20.4922 40.0101 20.9248C39.5722 21.3574 38.9845 21.5964 38.3737 21.5964ZM30.2841 17.0771V20.1621C30.2841 21.1069 30.7105 21.5281 31.6669 21.5281H32.6349V24.1009H31.229C30.0652 24.1009 29.0972 23.7593 28.4519 23.1219C27.8065 22.4844 27.4608 21.5395 27.4608 20.3898V17.0771H25.7208V14.5158H27.4608V13.127L30.2841 12V14.5158H32.6349V17.0771H30.2841V17.0771ZM24.6145 14.5158V19.7637C24.6145 21.3802 23.7502 22.8828 22.3328 23.7024C20.9154 24.5107 19.1638 24.5107 17.7349 23.7024C16.3175 22.8942 15.4417 21.3915 15.4532 19.7637V15.7452L18.265 14.6296V19.8547C18.265 20.8224 19.0601 21.6078 20.0396 21.6078C21.0191 21.6078 21.8142 20.8224 21.8142 19.8547V15.6542L24.6145 14.5158ZM14.2317 12V24.1009H11.4084V13.127L14.2317 12ZM5.60049 14.3223C4.42508 14.3223 3.42252 14.7207 2.67348 15.472L2.28168 14.5386L0 15.4493V26.6053H2.82329V23.304C3.5608 23.9642 4.50574 24.2716 5.60049 24.2716C6.87961 24.283 8.10111 23.748 8.95386 22.8145C9.81814 21.8924 10.2906 20.6402 10.2906 19.3083C10.2906 16.5193 8.22787 14.3223 5.60049 14.3223ZM5.17411 21.5964C3.87194 21.5964 2.82329 20.5719 2.82329 19.3083C2.82329 18.0447 3.87194 17.0202 5.17411 17.0202C6.47628 17.0202 7.52493 18.0447 7.52493 19.3083C7.52493 20.5719 6.47628 21.5964 5.17411 21.5964Z" fill="black"/>
<path d="M50.5583 19.3026C50.5583 15.3553 50.9209 14.3684 50.9209 14.3684L49.7652 14.3914C47.0234 14.4487 44.8027 16.5372 44.8027 19.3026C44.8027 22.0681 47.0234 24.1565 49.7652 24.2139L50.9209 24.2368C50.9322 24.2368 50.5583 23.25 50.5583 19.3026Z" fill="#FF2CD2"/>
<path d="M50.5956 19.3139C50.5956 16.173 52.2912 14.3684 52.2912 14.3684L50.9598 14.3913C48.2059 14.4484 45.9868 16.5499 45.9868 19.3025C45.9868 22.0551 48.2173 24.1567 50.9712 24.2138L52.3026 24.2366C52.2912 24.2595 50.5956 22.4549 50.5956 19.3139Z" fill="#5E00FF"/>
<path d="M50.6574 19.3026C50.6574 15.7749 53.6844 14.3684 53.6844 14.3684L52.353 14.3911C49.5991 14.4478 47.3687 16.5576 47.3687 19.3026C47.3687 22.0476 49.5991 24.1574 52.353 24.2141L53.6844 24.2368C53.6844 24.2368 50.6574 22.819 50.6574 19.3026Z" fill="#FFDE2B"/>
<path d="M50.5682 19.204C50.5682 16.8776 52.1149 14.4475 54.8568 14.1711L53.685 14.1941C50.8494 14.2517 48.5527 16.4169 48.5527 19.204C48.5527 21.9911 50.8494 24.1563 53.685 24.2138L54.8685 24.2369C52.1149 23.9605 50.5682 21.5304 50.5682 19.204Z" fill="#FF6700"/>
<path d="M54.967 14.1711C52.1862 14.1711 49.9341 16.4232 49.9341 19.204C49.9341 21.9847 52.1862 24.2369 54.967 24.2369C57.7477 24.2369 59.9999 21.9847 59.9999 19.204C59.9999 16.4232 57.7477 14.1711 54.967 14.1711ZM56.9549 21.663H56.0126L54.6682 18.4111H53.3238V20.0888C53.3238 20.445 53.4962 20.6748 53.9098 20.6748H54.5074V21.663H53.772C52.7838 21.663 52.2437 21.0999 52.2437 20.1692V18.4111H51.4968V17.4689H52.2437V16.8024L53.3238 16.3658V17.4689H55.4381L56.4723 20.1807L57.5179 17.4459H58.6899L56.9549 21.663Z" fill="black"/>
</svg>
