<svg width="60" height="40" viewBox="0 0 60 40" fill="none" xmlns="http://www.w3.org/2000/svg">
<path d="M0.865358 22.9036C0.70418 22.9111 0.546 22.8579 0.423055 22.7537C0.318102 22.6285 0.269373 22.4658 0.288115 22.3039V7.01065C0.269373 6.84872 0.318102 6.68604 0.423055 6.56085C0.5475 6.46639 0.701931 6.42141 0.857862 6.43341H2.52212C2.83698 6.40192 3.12036 6.62307 3.16684 6.93568L3.33176 7.53542C3.8108 7.07287 4.3768 6.70853 4.99602 6.46339C5.62949 6.20701 6.30644 6.07431 6.99014 6.07356C8.35303 6.02858 9.65595 6.63507 10.4986 7.70784C11.4267 8.98677 11.8877 10.5453 11.803 12.1234C11.8285 13.2689 11.6088 14.4061 11.1583 15.4594C10.7865 16.3365 10.1822 17.0959 9.41156 17.6559C8.66639 18.1642 7.77954 18.4266 6.87769 18.4056C6.26521 18.4086 5.65648 18.3074 5.07849 18.1057C4.54697 17.9273 4.05594 17.6469 3.63163 17.2811V22.3189C3.64812 22.4793 3.60314 22.6405 3.50419 22.7687C3.37599 22.8676 3.21482 22.9126 3.05439 22.8961L0.865358 22.9036ZM5.91062 15.8867C6.65129 15.9399 7.36797 15.6086 7.80728 15.0096C8.27432 14.1715 8.48572 13.2149 8.41451 12.2583C8.48647 11.2927 8.27807 10.3272 7.81477 9.47705C7.37397 8.87207 6.64979 8.53997 5.90312 8.59994C5.11072 8.60069 4.33407 8.8151 3.65412 9.22217V15.257C4.32882 15.6768 5.10847 15.8972 5.90312 15.8942L5.91062 15.8867Z" fill="#00A8E1"/>
<path d="M14.6516 18.1657C14.3832 18.2159 14.1246 18.039 14.0744 17.7699C14.0631 17.7099 14.0631 17.6484 14.0744 17.5885V7.01066C14.0556 6.84874 14.1043 6.68606 14.2093 6.56086C14.3337 6.46641 14.4882 6.42143 14.6441 6.43342H16.3009C16.6157 6.40193 16.8991 6.62309 16.9456 6.9357L17.2454 8.16515C17.738 7.58866 18.3265 7.10137 18.9847 6.72579C19.5214 6.44467 20.1182 6.29848 20.7239 6.29848H21.0463C21.2089 6.28424 21.3716 6.32922 21.5036 6.42592C21.6085 6.55112 21.6572 6.7138 21.6385 6.87572V8.80987C21.6512 8.9658 21.6063 9.12023 21.511 9.24467C21.3859 9.34963 21.2232 9.39835 21.0612 9.37961H20.6489C20.4788 9.37961 20.2644 9.37961 20.0042 9.37961C19.5709 9.38861 19.1391 9.43884 18.7148 9.52955C18.2725 9.61126 17.8407 9.73945 17.4254 9.91188V17.596C17.4374 17.7519 17.3924 17.9063 17.2979 18.0308C17.1727 18.1357 17.01 18.1845 16.8481 18.1657H14.6516Z" fill="#00A8E1"/>
<path d="M24.9598 4.60421C24.4485 4.6297 23.947 4.45803 23.5579 4.12442C23.1966 3.78632 23.0024 3.30654 23.0257 2.81251C23.0002 2.31548 23.1943 1.83269 23.5579 1.49309C24.3796 0.835636 25.5475 0.835636 26.3692 1.49309C26.7305 1.83119 26.9247 2.31098 26.9014 2.80501C26.9247 3.29904 26.7305 3.77883 26.3692 4.11693C25.9794 4.45503 25.4748 4.6297 24.9598 4.60421ZM23.8578 18.1732C23.5894 18.2234 23.3308 18.0465 23.2806 17.7774C23.2693 17.7174 23.2693 17.6559 23.2806 17.5959V7.01064C23.2618 6.84871 23.3105 6.68604 23.4155 6.56084C23.5399 6.46638 23.6944 6.4214 23.8503 6.4334H26.0618C26.2222 6.41691 26.3834 6.46189 26.5116 6.56084C26.6106 6.68904 26.6556 6.85021 26.6391 7.01064V17.5959C26.6518 17.7519 26.6068 17.9063 26.5116 18.0307C26.3864 18.1357 26.2237 18.1844 26.0618 18.1657L23.8578 18.1732Z" fill="#00A8E1"/>
<path d="M30.0652 18.1657C29.7968 18.2159 29.5382 18.039 29.4879 17.7698C29.4767 17.7099 29.4767 17.6484 29.4879 17.5884V7.01062C29.4692 6.84869 29.5179 6.68601 29.6229 6.56082C29.7473 6.46636 29.9017 6.42138 30.0577 6.43337H31.7144C32.0293 6.40189 32.3127 6.62304 32.3591 6.93565L32.5466 7.55787C33.2288 7.08783 33.9664 6.7055 34.7431 6.41838C35.3841 6.19498 36.058 6.07878 36.7372 6.07353C37.9187 5.97233 39.0537 6.55482 39.6609 7.57287C40.3454 7.10208 41.089 6.72424 41.8724 6.44837C42.5636 6.21822 43.2878 6.10202 44.0165 6.10352C44.9371 6.04804 45.8397 6.3734 46.5129 7.00312C47.1336 7.68382 47.4529 8.58717 47.3975 9.50701V17.5959C47.4095 17.7518 47.3645 17.9063 47.27 18.0307C47.1448 18.1357 46.9822 18.1844 46.8202 18.1657H44.6387C44.3703 18.2159 44.1117 18.039 44.0615 17.7698C44.0502 17.7099 44.0502 17.6484 44.0615 17.5884V10.2117C44.0615 9.16741 43.5944 8.64489 42.6596 8.64489C41.7885 8.65464 40.9301 8.86005 40.1482 9.24462V17.5959C40.1609 17.7518 40.116 17.9063 40.0207 18.0307C39.8956 18.1357 39.7329 18.1844 39.5709 18.1657H37.3669C37.0985 18.2159 36.8399 18.039 36.7897 17.7698C36.7784 17.7099 36.7784 17.6484 36.7897 17.5884V10.2117C36.7897 9.16741 36.3226 8.64489 35.3878 8.64489C34.5062 8.65014 33.6381 8.86379 32.8539 9.26712V17.5884C32.8659 17.7444 32.8209 17.8988 32.7265 18.0232C32.6013 18.1282 32.4386 18.1769 32.2767 18.1582L30.0652 18.1657Z" fill="#00A8E1"/>
<path d="M55.4187 18.5106C53.8031 18.6163 52.2161 18.0495 51.0331 16.9438C49.9514 15.7053 49.4108 14.0853 49.5338 12.4458C49.4258 10.7463 49.9731 9.06926 51.0631 7.76035C52.1989 6.58787 53.7889 5.96639 55.4187 6.0586C56.6241 5.98663 57.8146 6.35472 58.7697 7.09314C59.5778 7.78284 60.0231 8.80613 59.9766 9.86691C60.0314 10.9052 59.5358 11.8963 58.6722 12.4758C57.5095 13.14 56.1773 13.4473 54.8414 13.3604C54.0843 13.3694 53.3286 13.2839 52.5924 13.1055C52.5969 13.9346 52.9313 14.7278 53.522 15.3095C54.2215 15.8058 55.0731 16.0419 55.9284 15.9767C56.3468 15.9767 56.7651 15.949 57.1804 15.8942C57.7516 15.8058 58.3169 15.6851 58.8746 15.5344H59.0096H59.122C59.3822 15.5344 59.5119 15.7121 59.5119 16.0667V17.1237C59.5261 17.3029 59.4901 17.482 59.4069 17.641C59.3004 17.7662 59.1595 17.8569 59.0021 17.9033C57.8551 18.3254 56.6406 18.5316 55.4187 18.5106ZM54.669 11.2913C55.259 11.334 55.849 11.2096 56.3708 10.9314C56.7291 10.6863 56.9315 10.2702 56.903 9.83692C56.903 8.8721 56.328 8.39007 55.1788 8.39007C53.7042 8.39007 52.8526 9.29491 52.6224 11.1039C53.2919 11.2321 53.9726 11.295 54.654 11.2913H54.669Z" fill="#00A8E1"/>
<path d="M54.2117 31.0824C47.6446 35.9253 38.1238 38.4966 29.93 38.4966C18.9803 38.5551 8.40253 34.5272 0.265648 27.1992C-0.349079 26.6444 0.198177 25.8872 0.940348 26.3146C9.97983 31.476 20.2105 34.1868 30.6197 34.1786C38.387 34.1373 46.0703 32.5653 53.2296 29.5531C54.3691 29.0808 55.2987 30.2503 54.2117 31.0824Z" fill="#00A8E1"/>
<path d="M56.9779 28.0013C56.1383 26.9293 51.4304 27.4915 49.3088 27.7464C48.6641 27.8214 48.5591 27.2666 49.1439 26.8618C52.8922 24.223 59.062 24.9876 59.7742 25.8722C60.4863 26.7568 59.5867 32.9266 56.0258 35.8728C55.4861 36.3226 54.9688 36.0827 55.2087 35.483C56.0108 33.4664 57.7875 29.0433 56.9779 28.0013Z" fill="#00A8E1"/>
</svg>
