<svg width="28" height="28" viewBox="0 0 28 28" fill="none" xmlns="http://www.w3.org/2000/svg">
<g clip-path="url(#clip0)">
<path d="M15.75 3.5H11.0833C10.7613 3.5 10.5 3.76133 10.5 4.08333C10.5 4.40533 10.7613 4.66666 11.0833 4.66666H15.75C16.7148 4.66666 17.5 5.45183 17.5 6.41667V12.25C17.5 12.572 17.7613 12.8333 18.0833 12.8333C18.4053 12.8333 18.6667 12.572 18.6667 12.25V6.41667C18.6667 4.809 17.3588 3.5 15.75 3.5Z" fill="white"/>
<path d="M27.4165 15.1666H15.7498C15.4278 15.1666 15.1665 15.428 15.1665 15.75C15.1665 16.072 15.4278 16.3333 15.7498 16.3333H27.4165C27.7385 16.3333 27.9998 16.072 27.9998 15.75C27.9998 15.428 27.7385 15.1666 27.4165 15.1666Z" fill="white"/>
<path d="M9.33333 9.53674e-07C9.07667 9.53674e-07 8.82583 0.0431668 8.589 0.127167L1.60067 2.457C0.644 2.7755 0 3.6645 0 4.66667V25.6667C0 26.9535 1.0465 28 2.33333 28C2.59233 28 2.84433 27.9568 3.07883 27.8717L10.066 25.543C11.0227 25.2257 11.6667 24.3367 11.6667 23.3333V2.33333C11.6667 1.0465 10.6202 9.53674e-07 9.33333 9.53674e-07ZM2.33333 26.8333C1.68933 26.8333 1.16667 26.3095 1.16667 25.6667V4.66667C1.16667 4.16733 1.48867 3.724 1.96933 3.563L8.96933 1.22967C9.73467 0.957835 10.5 1.57033 10.5 2.33333V23.3333C10.5 23.8338 10.178 24.2772 9.69733 24.4358L2.69733 26.7692C2.57717 26.8123 2.45467 26.8333 2.33333 26.8333V26.8333Z" fill="white"/>
<path d="M18.0833 18.6667C17.7613 18.6667 17.5 18.928 17.5 19.25V25.0833C17.5 26.0482 16.7148 26.8333 15.75 26.8333H2.33333C2.01133 26.8333 1.75 27.0947 1.75 27.4167C1.75 27.7387 2.01133 28 2.33333 28H15.75C17.3588 28 18.6667 26.691 18.6667 25.0833V19.25C18.6667 18.928 18.4053 18.6667 18.0833 18.6667Z" fill="white"/>
<path d="M22.7501 10.5C22.6008 10.5 22.4515 10.5572 22.3371 10.6703C22.1096 10.8978 22.1096 11.2677 22.3371 11.4952L26.5908 15.7488L22.3371 20.0025C22.1096 20.23 22.1096 20.5998 22.3371 20.8273C22.5646 21.0548 22.9345 21.0548 23.162 20.8273L27.8286 16.1607C28.0561 15.9332 28.0561 15.5633 27.8286 15.3358L23.162 10.6692C23.0488 10.5572 22.8995 10.5 22.7501 10.5V10.5Z" fill="white"/>
</g>
<defs>
<clipPath id="clip0">
<rect width="28" height="28" fill="white" transform="matrix(1 0 0 -1 0 28)"/>
</clipPath>
</defs>
</svg>
