<svg width="60" height="40" viewBox="0 0 60 40" fill="none" xmlns="http://www.w3.org/2000/svg">
<path d="M8.99774 11C4.02853 11 0 15.0284 0 19.9976C0 24.9671 4.02853 28.9952 8.99774 28.9952C13.9675 28.9952 17.9956 24.9671 17.9956 19.9976C17.9956 15.0287 13.9675 11.0004 8.99763 11.0004L8.99774 11ZM13.124 23.9772C13.0856 24.0401 13.0352 24.0948 12.9756 24.1382C12.9161 24.1816 12.8485 24.2128 12.7769 24.2301C12.7052 24.2474 12.6309 24.2503 12.5581 24.2388C12.4852 24.2273 12.4154 24.2016 12.3526 24.163C10.24 22.8726 7.58054 22.5804 4.44853 23.296C4.3035 23.3289 4.15132 23.303 4.02542 23.2238C3.89952 23.1446 3.8102 23.0187 3.77711 22.8737C3.76063 22.8019 3.75847 22.7276 3.77075 22.6549C3.78304 22.5823 3.80954 22.5128 3.84872 22.4504C3.8879 22.3881 3.939 22.334 3.9991 22.2914C4.0592 22.2488 4.1271 22.2185 4.19894 22.2022C7.62642 21.4191 10.5664 21.7563 12.9382 23.2057C13.2025 23.368 13.2863 23.7129 13.124 23.9772V23.9772ZM14.2254 21.5272C14.0223 21.8573 13.5904 21.9615 13.2605 21.7584C10.8419 20.2718 7.15517 19.8413 4.29446 20.7097C3.92345 20.8217 3.5316 20.6126 3.419 20.2423C3.36527 20.0642 3.38434 19.8721 3.47204 19.7081C3.55974 19.5441 3.7089 19.4216 3.88681 19.3674C7.15452 18.3759 11.2169 18.8561 13.9943 20.5629C14.3242 20.766 14.4284 21.1979 14.2254 21.5273V21.5272ZM14.3199 18.976C11.42 17.2536 6.63546 17.0952 3.86672 17.9356C3.42211 18.0704 2.95193 17.8194 2.8172 17.3748C2.75241 17.1612 2.77511 16.9306 2.88031 16.7337C2.9855 16.5369 3.16458 16.3898 3.37817 16.325C6.55649 15.3601 11.8401 15.5465 15.1788 17.5286C15.274 17.5848 15.3571 17.6594 15.4234 17.7478C15.4897 17.8363 15.5379 17.937 15.5653 18.0441C15.5926 18.1512 15.5986 18.2627 15.5828 18.3721C15.567 18.4815 15.5297 18.5867 15.4732 18.6818C15.2368 19.0817 14.719 19.2135 14.3203 18.976H14.3199ZM24.4799 19.3061C22.9262 18.9356 22.6501 18.6756 22.6501 18.1293C22.6501 17.6131 23.1357 17.2657 23.8588 17.2657C24.5594 17.2657 25.2535 17.5295 25.9819 18.0725C26.0034 18.089 26.0314 18.0955 26.0582 18.0912C26.0717 18.0893 26.0847 18.0846 26.0964 18.0775C26.108 18.0704 26.1181 18.0609 26.1259 18.0498L26.8845 16.9805C26.8995 16.9593 26.9058 16.9332 26.9022 16.9075C26.8986 16.8817 26.8854 16.8584 26.8651 16.8421C25.9981 16.1466 25.0225 15.8085 23.8814 15.8085C22.2042 15.8085 21.032 16.8151 21.032 18.2554C21.032 19.7999 22.043 20.3468 23.7901 20.769C25.276 21.1114 25.5275 21.3983 25.5275 21.911C25.5275 22.4794 25.0203 22.8329 24.2037 22.8329C23.2969 22.8329 22.5566 22.5267 21.7293 21.8111C21.7087 21.7936 21.6821 21.7848 21.6551 21.7864C21.6272 21.7885 21.6025 21.8014 21.5853 21.8218L20.7343 22.834C20.6989 22.8769 20.7032 22.9393 20.744 22.9758C21.7067 23.8353 22.8908 24.2888 24.1694 24.2888C25.9766 24.2888 27.1445 23.3013 27.1445 21.7724C27.1477 20.4823 26.3752 19.7678 24.4831 19.3075L24.4799 19.3061ZM31.2338 17.774C30.4506 17.774 29.808 18.0825 29.2773 18.7148V18.0031C29.2774 17.9762 29.2668 17.9504 29.2479 17.9313C29.2289 17.9121 29.2032 17.9013 29.1763 17.9012H27.7849C27.729 17.9012 27.6839 17.9469 27.6839 18.0031V25.9112C27.6839 25.967 27.729 26.0132 27.7849 26.0132H29.1763C29.2321 26.0132 29.2773 25.967 29.2773 25.9112V23.4152C29.808 24.0094 30.4506 24.3006 31.2338 24.3006C32.6897 24.3006 34.1639 23.1799 34.1639 21.0376C34.166 18.8948 32.6919 17.7738 31.2349 17.7738L31.2338 17.774ZM32.5457 21.0376C32.5457 22.128 31.8742 22.8898 30.9115 22.8898C29.9606 22.8898 29.2429 22.0937 29.2429 21.0376C29.2429 19.9814 29.9606 19.1855 30.9115 19.1855C31.8581 19.1853 32.5457 19.9641 32.5457 21.0375V21.0376ZM37.9405 17.774C36.0656 17.774 34.5969 19.2176 34.5969 21.0609C34.5969 22.8845 36.056 24.3124 37.918 24.3124C39.7993 24.3124 41.2724 22.8737 41.2724 21.0376C41.2724 19.2077 39.809 17.7742 37.9405 17.7742V17.774ZM37.9405 22.9006C36.9434 22.9006 36.1913 22.099 36.1913 21.0371C36.1913 19.9702 36.9177 19.1961 37.918 19.1961C38.9215 19.1961 39.6779 19.9973 39.6779 21.0604C39.6779 22.127 38.9473 22.9006 37.9405 22.9006ZM45.2758 17.9012H43.7447V16.3361C43.7448 16.3228 43.7422 16.3096 43.7371 16.2973C43.7321 16.285 43.7247 16.2737 43.7153 16.2643C43.7059 16.2548 43.6948 16.2473 43.6825 16.2422C43.6702 16.237 43.657 16.2343 43.6437 16.2343H42.2523C42.1964 16.2343 42.1502 16.28 42.1502 16.3361V17.9012H41.4819C41.426 17.9012 41.3809 17.9469 41.3809 18.0031V19.1987C41.3809 19.2548 41.426 19.3006 41.4819 19.3006H42.1502V22.3945C42.1502 23.6441 42.7723 24.278 44.0004 24.278C44.499 24.278 44.9126 24.1749 45.3026 23.9535C45.3349 23.9363 45.3542 23.902 45.3542 23.8654V22.7265C45.3542 22.6921 45.336 22.6588 45.3059 22.6406C45.2912 22.6312 45.2744 22.6259 45.257 22.6251C45.2397 22.6244 45.2224 22.6282 45.207 22.6363C44.9395 22.7706 44.6805 22.8329 44.3904 22.8329C43.9445 22.8329 43.7447 22.6298 43.7447 22.1764V19.3012H45.2758C45.3317 19.3012 45.3768 19.2554 45.3768 19.1992V18.0038C45.3772 17.9904 45.375 17.9771 45.3701 17.9647C45.3653 17.9523 45.358 17.9409 45.3486 17.9314C45.3393 17.9219 45.3281 17.9143 45.3158 17.9092C45.3034 17.9042 45.2902 17.9016 45.2769 17.9018L45.2758 17.9012ZM50.6093 17.9073V17.7151C50.6093 17.1496 50.8264 16.8974 51.312 16.8974C51.6021 16.8974 51.8353 16.955 52.0964 17.042C52.1286 17.0521 52.1619 17.0471 52.1877 17.0279C52.2008 17.0184 52.2114 17.006 52.2187 16.9916C52.226 16.9772 52.2297 16.9613 52.2296 16.9451V15.7729C52.2299 15.751 52.223 15.7296 52.21 15.712C52.197 15.6944 52.1786 15.6815 52.1576 15.6752C51.8826 15.5933 51.5301 15.5091 51.0015 15.5091C49.7175 15.5091 49.0374 16.2327 49.0374 17.6008V17.8952H48.3691C48.3132 17.8952 48.267 17.9409 48.267 17.997V19.1987C48.267 19.2548 48.3132 19.3006 48.3691 19.3006H49.0374V24.0717C49.0374 24.1287 49.0836 24.1738 49.1395 24.1738H50.5298C50.5868 24.1738 50.6319 24.1287 50.6319 24.0717V19.301H51.9309L53.9208 24.0717C53.6951 24.5724 53.4727 24.6723 53.1697 24.6723C52.9248 24.6723 52.6658 24.5993 52.4026 24.4542C52.3776 24.4416 52.3489 24.4389 52.322 24.4467C52.2951 24.4564 52.2726 24.4757 52.2618 24.5015L51.7902 25.5362C51.7676 25.5856 51.7869 25.6426 51.8342 25.6683C52.3263 25.9348 52.77 26.0487 53.3191 26.0487C54.3463 26.0487 54.9146 25.5695 55.4143 24.2823L57.8275 18.0465C57.8337 18.0311 57.8361 18.0144 57.8342 17.9978C57.8323 17.9813 57.8263 17.9655 57.8167 17.9519C57.8077 17.9383 57.7954 17.9271 57.7809 17.9194C57.7665 17.9116 57.7504 17.9076 57.734 17.9076H56.2856C56.2416 17.9076 56.2029 17.9352 56.1889 17.976L54.7051 22.2129L53.0806 17.9732C53.0733 17.9539 53.0604 17.9374 53.0435 17.9257C53.0266 17.914 53.0066 17.9077 52.986 17.9076H50.6093V17.9073ZM47.5171 17.9012H46.1257C46.0698 17.9012 46.0236 17.9469 46.0236 18.0031V24.0717C46.0236 24.1287 46.0698 24.1738 46.1257 24.1738H47.5171C47.573 24.1738 47.6191 24.1287 47.6191 24.0717V18.0036C47.6192 17.9902 47.6166 17.9769 47.6114 17.9645C47.6063 17.9521 47.5988 17.9408 47.5893 17.9314C47.5798 17.9219 47.5686 17.9144 47.5562 17.9093C47.5438 17.9042 47.5305 17.9016 47.5171 17.9016V17.9012ZM46.8294 15.1378C46.2782 15.1378 45.8313 15.5839 45.8313 16.135C45.8313 16.2661 45.8571 16.3959 45.9073 16.517C45.9574 16.6381 46.0309 16.7481 46.1236 16.8408C46.2163 16.9334 46.3264 17.007 46.4475 17.0571C46.5686 17.1073 46.6984 17.1331 46.8294 17.133C47.3806 17.133 47.8265 16.6864 47.8265 16.135C47.8265 15.584 47.3795 15.1378 46.8294 15.1378ZM59.0158 19.8525C58.4657 19.8525 58.037 19.4103 58.037 18.8734C58.037 18.3365 58.4711 17.8894 59.0212 17.8894C59.5713 17.8894 60 18.3314 60 18.8678C60 19.4048 59.5659 19.8525 59.0158 19.8525ZM59.0212 17.9867C58.5194 17.9867 58.1401 18.3853 58.1401 18.8734C58.1401 19.3613 58.5173 19.7546 59.0158 19.7546C59.5176 19.7546 59.8968 19.3563 59.8968 18.8678C59.8968 18.3799 59.5197 17.9867 59.0212 17.9867V17.9867ZM59.2382 18.9685L59.5154 19.3562H59.2812L59.0319 19.0005H58.8181V19.3562H58.6226V18.3286H59.0803C59.3199 18.3286 59.4767 18.4508 59.4767 18.6564C59.4778 18.8249 59.38 18.9278 59.2393 18.9685H59.2382ZM59.0728 18.5049H58.8181V18.8299H59.0728C59.1995 18.8299 59.2758 18.7677 59.2758 18.6673C59.2758 18.5615 59.1995 18.5049 59.0728 18.5049V18.5049Z" fill="#1ED760"/>
</svg>
