<svg width="60" height="40" viewBox="0 0 60 40" fill="none" xmlns="http://www.w3.org/2000/svg">
<path fill-rule="evenodd" clip-rule="evenodd" d="M58.6296 16.8568L56.2299 14.4573H51.7721V11.3711H47.9999V25.4286H51.7721V18.228H54.8574V25.4286H58.6296V16.8568ZM46.6293 14.4573H40.8006L38.4004 16.8568V23.0281L40.8006 25.4286H46.6293V21.6575H42.1715V18.228H46.6293V14.4573V14.4573ZM37.0289 14.4573H33.9436V11.3711H30.1715V23.0281L32.5716 25.4286H37.0289V21.6575H33.9436V18.228H37.0289V14.4573V14.4573ZM28.8 11.3711H25.0289V13.086H28.8V11.3711ZM28.8 14.4573H25.0289V25.4284H28.8V14.4573V14.4573ZM23.6574 14.4573H19.8859V21.6575H18.5148V14.4573H14.7432V21.6575H13.3722V14.4573H9.60006V25.4286H21.2577L23.6574 23.0281V14.4573V14.4573ZM8.22859 14.4573H5.14312V11.3711H1.37164V23.0281L3.77165 25.4286H8.22859V21.6575H5.14312V18.228H8.22859V14.4573V14.4573ZM60 16.1709V26.4566L54.8574 29.8856H51.429V28.1707L49.029 29.8856H45.9437V28.1707L44.2299 29.8856H38.7438L37.0289 28.1707L36.6857 29.8856H31.8864L29.9237 28.1707L29.8138 29.8856H24.3738L24.1814 28.1707L22.7089 29.8856H14.3999L12.6854 29.1997V29.8856H8.22859L3.08548 26.799L0 23.7148V9.99998H6.51475L9.60006 13.086H23.6574V9.99998H35.3146V13.086H38.4004V14.7998L40.1153 13.086H43.5432L46.6293 9.99998H53.1436V13.086H56.9152L60 16.1709Z" fill="#6441A5"/>
</svg>
