<svg width="60" height="40" viewBox="0 0 60 40" fill="none" xmlns="http://www.w3.org/2000/svg">
<path d="M18.7371 15.1012C18.6272 14.6951 18.4128 14.3248 18.1153 14.0273C17.8177 13.7298 17.4475 13.5154 17.0413 13.4055C15.5545 13 9.57025 13 9.57025 13C9.57025 13 3.58602 13.0123 2.09918 13.4178C1.69304 13.5277 1.32277 13.7421 1.02525 14.0396C0.727731 14.3371 0.513347 14.7074 0.403445 15.1135C-0.0462939 17.7554 -0.220783 21.781 0.415733 24.3172C0.525635 24.7233 0.740019 25.0936 1.03754 25.3911C1.33505 25.6886 1.70532 25.903 2.11147 26.0129C3.59831 26.4184 9.58254 26.4184 9.58254 26.4184C9.58254 26.4184 15.5668 26.4184 17.0536 26.0129C17.4598 25.903 17.83 25.6886 18.1275 25.3911C18.4251 25.0936 18.6394 24.7233 18.7493 24.3172C19.2237 21.6716 19.3699 17.6485 18.7371 15.1012Z" fill="#FF0000"/>
<path d="M7.66553 22.5846L12.6299 19.7092L7.66553 16.8339V22.5846Z" fill="white"/>
<path d="M27.7812 25.2019C27.4003 24.9439 27.13 24.5506 26.9702 24.01C26.8105 23.4693 26.7368 22.7566 26.7368 21.8596V20.6431C26.7368 19.7461 26.8228 19.0088 27.0071 18.4681C27.1914 17.9152 27.474 17.5219 27.8673 17.2762C28.2605 17.0304 28.7643 16.8953 29.391 16.8953C30.0054 16.8953 30.5092 17.0181 30.8778 17.2762C31.2464 17.5342 31.5291 17.9274 31.7011 18.4681C31.8731 19.0088 31.9591 19.7338 31.9591 20.6308V21.8473C31.9591 22.7443 31.8731 23.457 31.7011 23.9977C31.5291 24.5384 31.2587 24.9316 30.8778 25.1896C30.4969 25.4354 29.9808 25.5705 29.3418 25.5705C28.6783 25.5828 28.1622 25.4477 27.7812 25.2019V25.2019ZM29.9071 23.8871C30.0176 23.6168 30.0668 23.1621 30.0668 22.5477V19.9304C30.0668 19.3283 30.0176 18.8859 29.9071 18.6156C29.7965 18.3329 29.6121 18.1978 29.3541 18.1978C29.096 18.1978 28.924 18.3329 28.8134 18.6156C28.7028 18.8982 28.6537 19.3283 28.6537 19.9304V22.5477C28.6537 23.1621 28.7028 23.6168 28.8011 23.8871C28.8994 24.1574 29.0838 24.2926 29.3541 24.2926C29.6121 24.2926 29.7965 24.1574 29.9071 23.8871V23.8871ZM56.8422 21.8842V22.3142L56.8914 23.5307C56.9282 23.8011 56.9897 23.9977 57.088 24.1206C57.1863 24.2434 57.346 24.3049 57.5549 24.3049C57.8376 24.3049 58.0342 24.1943 58.1325 23.9731C58.2431 23.7519 58.2922 23.3833 58.3045 22.8795L59.9388 22.9778C59.9511 23.0515 59.9511 23.1498 59.9511 23.2727C59.9511 24.0468 59.7422 24.6244 59.3121 25.0053C58.882 25.3862 58.2922 25.5828 57.5181 25.5828C56.5842 25.5828 55.9329 25.2879 55.5643 24.7104C55.1956 24.1329 54.999 23.2235 54.999 22.007V20.5202C55.0408 18.4312 55.4082 16.9014 57.5672 16.8953C58.2185 16.8953 58.71 17.0181 59.0541 17.2516C59.3981 17.4851 59.6439 17.8537 59.7913 18.3575C59.9388 18.8613 60.0002 19.5495 60.0002 20.4342V21.8719H56.8422V21.8842ZM57.088 18.3452C56.9897 18.4681 56.9282 18.6524 56.8914 18.9228C56.8545 19.1931 56.8422 20.1516 56.8422 20.1516V20.7537H58.2185V20.1516C58.2185 20.7537 58.2062 19.2054 58.1693 18.9228C58.1325 18.6401 58.071 18.4435 57.9727 18.3329C57.8744 18.2224 57.727 18.1609 57.5304 18.1609C57.3215 18.1732 57.174 18.2346 57.088 18.3452V18.3452ZM23.1855 21.7244L21.0352 13.9584H22.9152C22.9152 13.9584 23.7938 17.8537 24.0949 19.6846H24.144C24.4856 17.7407 25.3482 13.9584 25.3482 13.9584H27.2283L25.0533 21.7121V25.4354H23.1978V21.7244H23.1855Z" fill="black"/>
<path d="M38.0541 17.055V25.4477H36.5795L36.4198 24.4155H36.3829C35.9774 25.1896 35.3753 25.5828 34.5766 25.5828C33.1303 25.5791 32.9693 24.354 32.9546 23.3218V17.055H34.8469V23.2113C34.8469 23.5799 34.8838 23.8502 34.9698 24.01C35.1443 24.3516 35.5965 24.2643 35.8423 24.096C35.9841 24.0001 36.0985 23.8688 36.174 23.7151V17.055H38.0541Z" fill="black"/>
<path d="M47.7616 17.055V25.4477H46.2871L46.1273 24.4155H46.0904C45.6849 25.1896 45.0828 25.5828 44.2841 25.5828C42.8378 25.5791 42.6769 24.354 42.6621 23.3218V17.055H44.5545V23.2113C44.5545 23.5799 44.5913 23.8502 44.6773 24.01C44.8518 24.3516 45.304 24.2643 45.5498 24.096C45.6917 24.0001 45.806 23.8688 45.8816 23.7151V17.055H47.7616Z" fill="black"/>
<path d="M43.1902 15.4822H41.3102V25.4477H39.467V15.4822H37.5869V13.9585H43.1779V15.4822H43.1902ZM53.9913 18.3944C53.8807 17.866 53.6964 17.4851 53.4384 17.2393C53.1803 17.0059 52.8363 16.883 52.3816 16.883C52.0358 16.8822 51.6978 16.9849 51.4109 17.1779C51.1037 17.3745 50.8825 17.6326 50.7104 17.952H50.6982V13.5284H48.8795V25.4354H50.4401L50.6367 24.6367H50.6736C50.8238 24.918 51.0493 25.152 51.3248 25.3125C51.6197 25.4723 51.9392 25.5583 52.2956 25.5583C52.9346 25.5583 53.4015 25.2634 53.7087 24.6736C54.0036 24.0837 54.1634 23.1621 54.1634 21.921V20.594C54.1634 19.6601 54.1019 18.9228 53.9913 18.3944V18.3944ZM52.2587 21.8227C52.2587 22.4371 52.2341 22.9164 52.185 23.2604C52.1358 23.6045 52.0498 23.8503 51.9269 23.9977C51.8041 24.1452 51.6443 24.2189 51.4477 24.2189C51.0668 24.2066 50.8505 24.0346 50.6982 23.7765V19.0088C50.7596 18.7753 50.8702 18.591 51.0299 18.4436C51.3003 18.14 51.7623 18.1364 51.9761 18.4436C52.0867 18.591 52.1481 18.8491 52.1973 19.2054C52.2341 19.5618 52.2587 20.0656 52.2587 20.7291V21.8227Z" fill="black"/>
</svg>
